<?xml version="1.0" standalone="no"?>
<!DOCTYPE svg PUBLIC "-//W3C//DTD SVG 20010904//EN"
 "http://www.w3.org/TR/2001/REC-SVG-20010904/DTD/svg10.dtd">
<svg version="1.0" xmlns="http://www.w3.org/2000/svg"
 width="32.000000pt" height="32.000000pt" viewBox="0 0 32.000000 32.000000"
 preserveAspectRatio="xMidYMid meet">

<g transform="translate(0.000000,32.000000) scale(0.100000,-0.100000)"
fill="#000000" stroke="none">
<path d="M120 300 c0 -8 -4 -22 -9 -29 -8 -12 -13 -11 -30 10 l-20 24 -1 -47
c0 -46 1 -47 37 -54 29 -5 39 -3 50 11 13 18 13 18 26 0 11 -14 21 -16 50 -11
36 7 37 8 37 53 l0 46 -24 -22 -24 -23 -7 21 c-9 28 -19 26 -34 -6 l-13 -28
-19 35 c-10 19 -18 28 -19 20z"/>
<path d="M150 192 c0 -22 45 -27 87 -11 37 14 24 19 -20 9 -30 -6 -40 -5 -44
6 -8 20 -23 17 -23 -4z"/>
<path d="M75 185 c34 -16 75 -20 60 -6 -6 5 -28 11 -50 14 l-40 6 30 -14z"/>
<path d="M60 143 c0 -17 10 -37 25 -52 14 -13 25 -35 25 -50 1 -25 1 -25 15
-7 15 19 15 19 16 -5 1 -17 3 -19 6 -7 5 21 19 23 26 6 3 -7 6 -4 6 6 1 20 1
20 16 0 14 -18 14 -18 15 9 0 17 10 37 26 52 31 29 31 71 -1 68 -59 -6 -94 -6
-132 1 -42 8 -43 7 -43 -21z m64 -9 c26 -10 18 -24 -14 -24 -20 0 -30 5 -30
15 0 16 17 19 44 9z m116 -9 c0 -10 -10 -15 -30 -15 -47 0 -35 27 13 29 9 1
17 -6 17 -14z m-70 -40 c0 -8 -4 -15 -10 -15 -5 0 -10 7 -10 15 0 8 5 15 10
15 6 0 10 -7 10 -15z"/>
</g>
</svg>
