<?xml version="1.0" standalone="no"?>
<!DOCTYPE svg PUBLIC "-//W3C//DTD SVG 20010904//EN"
 "http://www.w3.org/TR/2001/REC-SVG-20010904/DTD/svg10.dtd">
<svg version="1.0" xmlns="http://www.w3.org/2000/svg"
 width="773.000000pt" height="429.000000pt" viewBox="0 0 773.000000 429.000000"
 preserveAspectRatio="xMidYMid meet">

<g transform="translate(0.000000,429.000000) scale(0.100000,-0.100000)"
fill="#000000" stroke="none">
<path d="M2861 4254 c-61 -31 -102 -81 -127 -156 -22 -66 -15 -185 21 -358 27
-129 56 -207 95 -250 12 -14 28 -37 36 -51 23 -45 71 -78 134 -91 l59 -12 26
-75 c32 -89 92 -214 135 -277 30 -44 37 -65 23 -63 -37 6 -66 -5 -98 -38 -66
-68 -75 -101 -91 -324 l-7 -97 -59 -18 c-43 -13 -63 -25 -73 -43 -13 -25 -14
-25 -21 -6 -37 106 -72 159 -123 184 -92 47 -172 33 -239 -44 l-37 -43 -120
48 c-66 26 -175 68 -242 94 -111 43 -123 50 -123 72 0 19 -8 29 -36 40 -26 11
-40 12 -47 5 -8 -8 -5 -11 10 -11 35 0 53 -11 53 -32 0 -15 -5 -18 -22 -13
-13 4 -27 11 -33 16 -5 5 -17 9 -27 9 -31 0 -66 22 -72 46 -5 17 -13 24 -31
24 -14 0 -48 9 -77 20 -67 25 -67 25 -65 -7 l2 -26 -103 -5 c-120 -5 -175 9
-67 18 l70 5 -54 17 c-74 24 -141 80 -141 118 0 16 5 32 10 35 6 3 10 28 10
55 0 54 -7 60 -74 60 -54 0 -66 -13 -66 -70 l0 -47 -87 31 c-49 17 -107 44
-130 59 -47 30 -59 33 -67 15 -3 -10 -8 -9 -15 3 -7 10 -19 15 -34 12 -13 -3
-30 2 -38 9 -8 8 -20 13 -28 10 -8 -3 -11 0 -7 7 5 7 -1 11 -15 11 -17 0 -19
3 -10 14 17 20 -5 32 -26 14 -15 -11 -16 -11 -10 5 7 19 0 22 -22 8 -16 -11
-56 12 -56 31 0 13 -92 53 -241 103 -155 54 -285 45 -381 -24 -122 -88 -124
-302 -5 -401 64 -53 130 -77 422 -156 336 -90 375 -98 421 -87 25 7 47 4 89
-11 30 -11 56 -20 57 -21 1 0 11 -41 22 -90 12 -50 23 -99 27 -111 5 -18 -4
-25 -63 -52 -86 -40 -217 -123 -263 -167 -33 -31 -40 -33 -125 -37 -55 -3
-103 -12 -122 -21 -27 -15 -96 -105 -132 -174 -14 -28 -28 -165 -31 -307 -1
-61 -3 -142 -5 -179 -2 -38 0 -130 4 -205 l7 -137 53 -88 c29 -48 62 -94 74
-101 28 -17 89 -24 297 -32 124 -5 169 -10 182 -21 9 -8 41 -18 70 -22 l53 -7
-52 -8 c-29 -4 -57 -14 -64 -22 -6 -8 -19 -14 -28 -14 -13 -1 -12 -3 4 -12 11
-6 74 -18 140 -25 66 -8 170 -20 230 -27 l110 -14 -80 -2 -80 -3 85 -8 c47 -4
121 -7 165 -8 l79 -1 56 -55 c52 -51 59 -55 130 -66 83 -14 573 -19 586 -6 4
4 2 13 -4 19 -27 27 -7 26 86 -7 81 -28 112 -34 178 -34 43 1 135 -2 204 -5
l125 -7 -25 20 c-14 11 -50 34 -81 51 -48 25 -58 35 -63 65 -4 19 -16 39 -26
45 -13 7 -20 21 -20 41 l0 31 123 -9 c67 -4 168 -8 224 -8 93 0 100 -1 75 -14
-54 -27 -62 -41 -62 -101 0 -68 9 -120 21 -120 5 0 9 11 9 25 0 20 24 45 43
45 2 0 21 -16 41 -36 l37 -36 95 5 c53 3 98 8 101 11 3 3 14 1 24 -5 15 -7 22
-4 35 16 13 20 19 23 25 13 7 -10 11 -10 21 0 10 10 15 9 28 -8 14 -18 21 -19
65 -11 28 5 62 7 77 4 22 -4 31 2 58 38 34 48 69 68 81 47 5 -7 26 -13 49 -14
30 0 41 4 46 18 8 27 80 26 87 -2 5 -21 7 -21 147 -24 19 -1 41 -5 49 -10 10
-6 12 -5 7 2 -4 7 -1 12 6 12 8 0 9 3 3 8 -22 16 -14 32 14 32 33 0 38 -6 51
-52 9 -30 9 -31 -25 -25 -36 6 -57 -6 -29 -17 9 -3 30 -6 49 -6 27 0 35 5 45
31 l13 31 22 -28 c21 -26 23 -27 29 -8 7 22 46 30 58 11 5 -7 8 -1 8 15 0 20
-8 31 -29 42 -27 15 -28 18 -20 53 5 21 9 41 9 46 0 4 56 7 124 7 l124 0 -33
-77 c-19 -43 -37 -90 -40 -105 l-7 -26 43 14 c23 8 61 18 83 22 59 10 385 5
399 -6 41 -33 407 -38 407 -6 0 8 7 14 15 14 8 0 15 -7 15 -15 0 -8 5 -15 10
-15 11 0 25 29 35 73 7 33 20 28 28 -10 4 -18 15 -32 34 -40 39 -15 258 -24
271 -11 11 11 102 12 155 3 23 -5 35 2 70 40 41 43 67 57 67 35 0 -5 7 -10 15
-10 8 0 15 7 15 15 0 19 24 30 41 19 9 -5 7 -11 -6 -21 -16 -11 7 -13 156 -15
168 -1 170 -2 69 -8 -58 -4 -146 -8 -195 -9 -81 -1 -92 -3 -104 -22 -9 -15
-10 -24 -2 -28 6 -4 166 -8 355 -10 286 -1 349 1 377 13 19 8 50 18 71 21 20
3 39 12 42 20 3 8 18 15 33 16 23 0 25 2 9 8 -18 7 -18 8 -2 14 10 4 28 7 40
7 12 0 73 22 136 50 63 27 121 50 130 50 8 0 24 7 34 15 11 8 31 16 45 16 61
3 -109 17 -284 24 -171 6 -571 -4 -810 -21 -88 -7 -109 1 -43 16 l33 7 -28 12
c-16 6 -53 14 -84 17 -55 7 -55 7 -49 37 3 16 6 33 6 38 0 5 15 9 33 9 19 0
37 3 41 8 4 4 197 7 429 8 403 0 579 6 730 24 80 10 99 24 159 115 l40 60 -7
412 c-4 226 -10 428 -15 447 -17 76 -102 191 -148 200 -15 4 -124 15 -242 26
-337 32 -903 35 -1021 5 -27 -7 -27 -6 -22 42 17 166 46 188 288 219 66 9 176
29 245 46 69 17 154 32 190 35 160 11 214 65 213 213 -1 120 -39 198 -106 219
-26 8 -209 31 -247 31 -6 0 -10 6 -10 14 0 10 -19 14 -72 15 -40 1 -81 4 -90
7 -9 3 -48 -4 -85 -16 -72 -22 -70 -22 -338 0 -60 5 -159 12 -220 16 l-110 6
-57 -41 c-31 -23 -58 -41 -61 -41 -2 0 -7 22 -9 49 -6 64 -48 134 -100 169
-36 23 -52 27 -113 26 l-72 0 -11 60 c-12 63 -57 163 -92 204 -13 16 -44 30
-91 42 -39 10 -76 26 -82 34 -14 19 -185 39 -201 25 -6 -5 -19 -9 -31 -9 -12
0 -26 -5 -33 -12 -15 -15 -76 -12 -111 6 -18 9 -70 14 -167 14 -78 0 -150 5
-161 10 -10 6 -28 10 -38 9 -16 -2 -21 7 -29 50 -7 40 -14 54 -30 60 -11 5
-228 7 -480 6 l-460 -3 -68 -45 c-37 -25 -70 -45 -72 -45 -7 0 -1 23 9 40 10
16 8 91 -3 102 -4 4 -20 9 -36 12 -16 3 -32 10 -36 16 -4 6 -12 58 -19 116
-16 143 -40 202 -102 258 -89 80 -217 100 -318 50z m159 -74 c0 -11 -4 -20 -9
-20 -5 0 -7 9 -4 20 3 11 7 20 9 20 2 0 4 -9 4 -20z m-46 -21 c-17 -7 -16 -8
6 -10 14 -1 33 -2 43 -2 19 0 19 0 11 -21 -3 -9 -11 -13 -18 -10 -6 3 -2 -2 8
-10 12 -10 28 -14 40 -10 16 5 11 -4 -17 -33 -27 -28 -46 -40 -67 -40 -16 0
-27 4 -24 9 4 5 -3 12 -15 15 -12 3 -18 10 -14 17 13 20 11 35 -3 29 -10 -4
-14 3 -14 22 0 23 3 26 20 21 24 -7 60 -15 43 -9 -17 6 -25 35 -11 44 6 4 16
5 22 2 5 -4 1 -10 -10 -14z m83 -128 c1 -14 -3 -18 -14 -14 -9 4 -14 2 -11 -3
4 -5 -13 -10 -35 -10 -23 -1 -31 0 -17 3 13 3 35 14 49 24 29 23 26 23 28 0z
m1223 -300 c31 -9 40 -49 14 -68 -21 -16 -147 -18 -175 -3 -23 13 -25 43 -3
64 16 17 114 21 164 7z m-944 -66 c3 -8 -1 -22 -11 -31 -20 -21 -25 -16 -18
19 6 29 20 36 29 12z m435 -22 c-293 -4 -300 -5 -302 -67 -2 -30 -2 -30 -6 -4
-2 15 1 37 7 50 l11 23 -20 -24 -21 -23 0 25 0 25 298 -1 297 -1 -264 -3z
m459 -59 c30 -3 57 -9 60 -13 3 -3 24 -19 46 -34 40 -27 42 -31 49 -92 3 -36
4 -69 0 -75 -3 -5 -19 -10 -35 -10 -34 0 -42 -11 -50 -65 -4 -35 -9 -40 -32
-43 -26 -3 -28 0 -28 30 0 48 -10 78 -26 78 -10 0 -14 -15 -14 -55 l0 -56
-112 3 -113 3 -3 53 c-2 36 -7 52 -17 52 -10 0 -15 -16 -17 -52 l-3 -53 -112
-3 -113 -3 0 56 c0 40 -4 55 -14 55 -18 0 -26 -22 -26 -71 0 -38 -2 -40 -27
-37 -25 3 -29 8 -34 46 -7 54 -14 60 -69 64 l-45 3 -3 105 c-2 87 0 107 13
116 17 13 613 11 725 -2z m-747 -223 c10 -11 9 -13 -3 -9 -11 3 -15 21 -16 69
-1 59 -1 60 3 9 2 -30 10 -61 16 -69z m-26 -13 c11 -12 31 -18 63 -18 l47 0 7
-42 c4 -23 12 -48 18 -55 15 -19 711 -19 726 0 6 7 14 32 18 55 6 39 9 42 40
42 31 0 64 21 64 41 0 5 11 9 26 9 24 0 25 -2 22 -47 l-3 -48 -53 -3 c-30 -2
-59 2 -67 8 -10 8 -14 3 -19 -25 -4 -19 -15 -39 -26 -45 -12 -6 -152 -10 -369
-10 -338 0 -352 1 -371 20 -11 11 -20 28 -20 38 0 27 -5 29 -62 22 -29 -4 -58
-5 -65 -3 -15 6 -29 93 -16 102 5 3 9 16 10 29 1 41 6 37 10 -8 3 -25 12 -53
20 -62z m956 13 c-10 -9 -12 -9 -5 -1 6 7 13 28 13 45 l2 30 4 -29 c3 -19 -1
-34 -14 -45z m67 39 c0 -5 -6 -10 -14 -10 -8 0 -18 5 -21 10 -3 6 3 10 14 10
12 0 21 -4 21 -10z m72 -20 c4 -26 1 -30 -19 -30 -17 0 -23 5 -21 18 2 13 24
39 34 42 1 0 4 -13 6 -30z m-1361 -49 c-28 -18 -28 -101 0 -101 5 0 4 12 -1
26 -13 33 -6 44 28 44 20 0 23 -3 14 -12 -14 -14 -15 -79 -2 -153 4 -27 6 -52
5 -54 -2 -1 -17 23 -33 55 -34 68 -85 205 -78 211 2 3 19 12 38 21 32 16 33
16 41 -3 6 -15 3 -23 -12 -34z m1429 -18 c0 -48 -3 -64 -10 -53 -11 17 -9 120
2 120 4 0 8 -30 8 -67z m533 52 c9 -4 18 -12 18 -19 3 -27 0 -69 -6 -74 -4 -4
-88 -8 -188 -9 -100 -2 -210 -4 -245 -5 -53 -3 -63 0 -68 16 -10 29 6 35 101
39 l90 3 -97 2 -98 2 0 31 0 31 238 -5 c130 -3 245 -9 255 -12z m-516 -47 c-2
-13 -4 -5 -4 17 -1 22 1 32 4 23 2 -10 2 -28 0 -40z m-1049 7 c-3 -3 -9 2 -12
12 -6 14 -5 15 5 6 7 -7 10 -15 7 -18z m988 -61 c-6 -16 -52 -19 -62 -3 -3 6
-1 16 5 22 9 9 14 8 21 -3 7 -11 11 -8 21 15 12 29 13 29 17 7 2 -13 1 -30 -2
-38z m-3936 -54 c-8 -5 -19 -10 -25 -10 -5 0 -3 5 5 10 8 5 20 10 25 10 6 0 3
-5 -5 -10z m2684 -68 c5 -18 6 -35 2 -39 -9 -9 -42 27 -51 55 -6 21 -4 23 16
20 16 -2 26 -13 33 -36z m146 -42 c40 -35 28 -39 -29 -9 -38 19 -56 41 -44 53
7 7 29 -6 73 -44z m-90 -31 c0 -5 -4 -9 -10 -9 -5 0 -10 7 -10 16 0 8 5 12 10
9 6 -3 10 -10 10 -16z m172 -11 c-7 -7 -12 -8 -12 -2 0 6 3 14 7 17 3 4 9 5
12 2 2 -3 -1 -11 -7 -17z m1961 -9 c10 -14 21 -46 24 -70 6 -41 5 -43 -11 -30
-22 19 -41 57 -49 99 -8 39 6 40 36 1z m273 -20 c-5 -30 -3 -39 5 -33 14 8 3
-45 -12 -60 -20 -21 -28 9 -14 49 8 22 14 50 15 63 0 12 3 22 6 22 4 0 4 -18
0 -41z m253 22 c12 -22 5 -32 -17 -24 -21 8 -32 24 -26 35 9 14 33 8 43 -11z
m-2709 -18 c25 -3 52 -13 60 -23 17 -20 93 -33 107 -19 14 14 41 1 48 -22 10
-31 61 -29 86 3 19 24 34 10 24 -22 -6 -19 -16 -20 -141 -22 -74 -1 -145 -2
-160 -2 -20 -1 -33 11 -66 63 -30 48 -36 62 -22 56 11 -4 39 -9 64 -12z m2662
-56 c7 -3 4 -6 -8 -6 -28 -1 -58 33 -50 56 6 14 10 12 26 -14 10 -17 24 -33
32 -36z m555 42 c-41 -31 -57 -70 -57 -141 1 -107 53 -184 147 -216 l38 -12
-35 5 c-49 7 -111 55 -137 106 -18 33 -23 59 -23 116 0 41 5 84 11 96 12 25
59 67 74 67 6 -1 -3 -10 -18 -21z m-2457 -44 c0 -8 8 -19 18 -25 15 -9 14 -10
-8 -8 -19 2 -26 10 -28 32 -2 18 0 26 7 21 6 -3 11 -12 11 -20z m-2850 -27 c0
-15 -26 -7 -55 17 l-30 25 42 -18 c24 -9 43 -20 43 -24z m3045 9 l17 -28 -79
5 c-43 3 -80 5 -83 6 -2 0 11 11 30 24 48 33 93 30 115 -7z m-2926 -2 c2 -10
-5 -25 -15 -32 -16 -12 -16 -13 -1 -13 9 0 17 -7 17 -15 0 -18 -5 -18 -29 -5
-17 9 -19 34 -5 78 6 19 28 9 33 -13z m4975 5 c-22 -10 -51 -31 -63 -46 -19
-24 -20 -24 -9 -4 18 30 74 70 97 69 9 0 -2 -9 -25 -19z m-251 -81 c22 -11 37
-22 35 -25 -6 -6 -121 25 -132 36 -6 6 -4 15 4 25 12 14 15 14 34 0 12 -8 38
-24 59 -36z m-4813 6 c0 -8 -9 -15 -20 -15 -15 0 -20 7 -20 25 0 23 2 24 20
15 11 -6 20 -17 20 -25z m4605 -43 c3 -14 14 -32 23 -39 14 -10 11 -11 -18 -2
-19 5 -50 10 -67 11 -29 1 -33 5 -33 28 0 35 2 36 49 32 33 -3 40 -8 46 -30z
m820 22 c-9 -9 -18 -14 -21 -11 -9 9 6 27 22 27 13 0 13 -2 -1 -16z m-5427
-21 c-5 -26 -38 -29 -38 -4 0 15 6 21 21 21 14 0 19 -5 17 -17z m3991 -36 c-9
-25 -10 -45 -3 -69 9 -29 15 -34 49 -38 22 -3 54 -16 70 -28 26 -19 45 -22
137 -24 97 -3 107 -5 112 -23 3 -10 4 -20 3 -22 -9 -8 -269 -83 -290 -83 -14
0 -68 -14 -119 -30 -90 -29 -93 -30 -128 -13 -19 9 -59 19 -88 21 -61 5 -58 0
-66 142 l-5 95 80 0 c65 1 84 4 94 18 7 10 26 17 47 17 27 0 43 9 74 39 21 22
40 38 42 36 2 -2 -2 -19 -9 -38z m-3445 -125 c9 -5 1 -178 -11 -254 -4 -29
-10 -38 -26 -38 -16 0 -17 3 -7 15 9 11 9 22 1 47 -6 19 -11 45 -10 58 1 14
-4 40 -9 58 -7 20 -7 32 -1 32 5 0 3 13 -6 29 -9 18 -11 32 -5 36 5 3 6 13 3
21 -5 14 -1 15 28 9 19 -4 38 -10 43 -13z m2479 -30 c126 -75 233 -207 278
-343 20 -61 24 -93 23 -184 0 -63 -6 -121 -13 -135 l-12 -25 6 25 c28 131 10
275 -51 400 -44 88 -156 207 -244 258 -30 17 -50 32 -45 32 6 0 31 -13 58 -28z
m-650 -21 c-164 -106 -258 -264 -283 -477 l-9 -79 5 89 c7 145 56 262 155 370
46 51 161 136 183 136 5 0 -18 -17 -51 -39z m3070 12 c-7 -2 -19 -2 -25 0 -7
3 -2 5 12 5 14 0 19 -2 13 -5z m-3038 -51 c-163 -104 -265 -285 -265 -467 0
-110 43 -257 81 -281 8 -4 9 -3 5 4 -4 7 -5 12 -3 12 3 0 14 -15 24 -32 25
-42 102 -128 115 -128 5 0 7 4 4 9 -3 4 28 -9 69 -31 123 -64 261 -83 380 -53
77 20 176 66 225 105 56 45 59 36 3 -12 -76 -66 -166 -104 -284 -119 -88 -11
-109 -10 -167 4 -74 17 -139 44 -192 79 -27 17 -32 18 -21 5 8 -10 28 -25 44
-34 20 -10 26 -17 18 -22 -8 -5 6 -16 36 -29 26 -12 42 -21 34 -22 -21 0 -131
58 -184 98 -59 45 -132 136 -121 153 4 8 3 9 -4 5 -13 -8 -40 42 -68 124 -20
59 -27 238 -10 275 4 11 10 32 11 46 9 93 151 271 257 322 77 38 82 33 13 -11z
m692 -55 c72 -66 134 -164 163 -256 22 -70 29 -245 9 -256 -6 -4 -8 -14 -4
-23 8 -21 -14 -84 -37 -103 -10 -9 -18 -29 -18 -45 0 -22 -17 -46 -83 -110
-87 -85 -160 -130 -285 -173 -66 -22 -204 -29 -232 -11 -8 5 -10 10 -5 11 6 0
-1 5 -15 10 -21 7 -20 8 9 4 18 -3 49 -5 68 -5 20 0 32 -4 28 -10 -4 -6 9 -10
32 -9 37 1 37 2 8 8 -26 6 -23 8 28 14 127 16 247 75 332 164 34 35 43 51 39
68 -3 13 0 26 6 30 9 5 10 1 5 -16 l-6 -24 18 23 c43 53 93 168 102 235 28
201 -69 396 -269 540 -19 13 -14 12 18 -4 24 -11 64 -39 89 -62z m573 -248
c10 -145 10 -241 1 -439 -13 -272 -16 -287 -71 -333 -37 -32 -41 -32 -420 -53
-333 -19 -724 -15 -1068 10 -154 11 -188 16 -210 33 -44 32 -70 80 -78 141
-10 79 -8 751 2 837 6 46 9 -88 9 -400 0 -439 1 -472 19 -508 32 -64 62 -78
189 -88 317 -23 702 -31 966 -19 149 6 278 12 288 14 10 2 70 7 134 11 139 8
170 22 200 91 19 41 20 69 22 382 1 185 -1 396 -5 467 -4 74 -3 111 2 85 4
-25 13 -129 20 -231z m-2160 221 c36 -27 70 -89 93 -167 l16 -52 -57 -59 c-64
-65 -113 -102 -135 -102 -11 0 -24 27 -42 88 -14 48 -39 125 -55 172 l-29 85
28 28 c49 50 121 53 181 7z m640 6 c0 -3 -18 -37 -39 -78 -21 -40 -44 -90 -51
-112 -8 -24 -15 -34 -20 -26 -27 43 -40 -204 -16 -308 52 -228 213 -409 439
-493 l52 -20 -104 6 c-113 6 -131 13 -214 82 -253 211 -338 575 -203 868 32
68 33 70 70 71 34 0 37 -1 31 -24 -4 -15 -2 -21 5 -17 5 3 10 12 10 19 0 14
20 36 32 36 4 0 8 -2 8 -4z m1150 -43 c17 -26 30 -52 30 -57 0 -11 -12 6 -49
67 -33 54 -16 46 19 -10z m-2029 -16 c-22 -50 -37 -122 -47 -222 l-8 -70 -8
45 c-16 81 8 198 52 261 29 40 32 36 11 -14z m1602 7 c9 -3 15 -10 12 -15 -4
-5 1 -11 9 -14 9 -3 23 -7 31 -10 19 -6 9 -32 -16 -40 -11 -4 -17 -11 -14 -16
4 -5 0 -10 -7 -10 -7 -1 -20 -3 -28 -4 -8 -1 -23 -3 -32 -4 -14 -1 -9 -9 20
-36 20 -19 31 -35 24 -35 -8 0 -10 -5 -6 -12 4 -7 -1 -6 -12 4 -41 35 -118 68
-158 68 -50 0 -116 -29 -173 -76 -56 -46 -55 -26 2 31 46 46 44 51 -13 46 -14
-1 -21 2 -18 8 4 6 -5 13 -19 17 -14 3 -30 14 -35 24 -14 26 12 43 76 48 41 3
54 8 55 21 1 13 2 13 6 -1 2 -10 8 -18 13 -18 5 0 7 7 4 15 -4 9 0 15 9 15 10
0 19 -17 27 -50 9 -37 17 -50 30 -50 19 0 24 10 35 74 l6 38 77 -7 c42 -3 85
-9 95 -11z m-2743 -14 c0 -13 -7 -20 -20 -20 -13 0 -20 7 -20 20 0 13 7 20 20
20 13 0 20 -7 20 -20z m185 -10 c-5 -8 -11 -8 -17 -2 -6 6 -7 16 -3 22 5 8 11
8 17 2 6 -6 7 -16 3 -22z m3052 6 c-16 -13 -16 -14 7 -20 34 -8 52 -42 34 -64
-9 -11 -10 -14 0 -8 6 4 12 4 13 -1 0 -4 2 -16 4 -25 2 -10 -2 -18 -8 -18 -7
0 -5 -5 3 -10 11 -7 11 -10 2 -10 -7 0 -10 -4 -7 -10 3 -5 3 -15 -1 -22 -4 -6
-13 12 -21 43 -8 30 -24 77 -37 104 l-23 51 26 2 c24 1 25 0 8 -12z m473 0 c0
-7 -52 -38 -66 -40 -8 -1 -20 -8 -26 -14 -16 -16 -38 -15 -38 1 0 12 39 34 90
51 19 6 40 7 40 2z m880 -43 c0 -71 -23 -152 -74 -260 l-55 -117 -88 -18 c-84
-18 -273 -39 -282 -31 -7 5 51 196 70 228 9 17 23 49 30 73 7 23 19 48 27 54
12 11 323 94 360 97 7 1 12 -11 12 -26z m-1370 -38 c0 -5 -5 -3 -10 5 -5 8
-10 20 -10 25 0 6 5 3 10 -5 5 -8 10 -19 10 -25z m-1560 -29 c0 -29 -4 -36
-31 -45 -52 -18 -61 -15 -57 21 3 27 9 33 43 44 22 6 41 12 43 13 1 1 2 -14 2
-33z m-834 10 c27 -8 66 -17 87 -21 45 -7 54 -24 68 -137 11 -90 4 -113 -40
-121 -21 -4 -36 -18 -52 -47 l-23 -41 -50 7 c-28 3 -57 10 -66 15 -8 4 -31 11
-51 14 -55 8 -63 24 -45 86 9 29 16 70 16 91 0 33 5 41 40 63 32 20 41 33 46
65 7 46 4 45 70 26z m3824 2 c0 -7 -5 -20 -10 -28 -8 -12 -10 -9 -10 13 0 15
5 27 10 27 6 0 10 -6 10 -12z m-1411 -38 c0 -10 -3 -8 -9 5 -12 27 -12 43 0
25 5 -8 9 -22 9 -30z m1489 18 c17 -2 15 -15 -3 -22 -8 -3 -15 -2 -15 3 0 5
-11 7 -25 6 -16 -2 -25 2 -25 11 0 10 8 13 28 8 15 -3 33 -6 40 -6z m94 -10
c16 0 28 -4 28 -10 0 -7 -13 -8 -37 -4 -21 4 -44 8 -50 8 -7 1 -13 5 -13 10 0
5 10 6 22 2 13 -4 35 -7 50 -6z m-5038 -107 c-12 -12 -44 45 -43 79 0 35 0 35
25 -19 13 -30 22 -57 18 -60z m2876 74 c31 -32 12 -48 -46 -38 -54 9 -74 38
-32 46 13 2 3 5 -22 5 -25 1 -52 -3 -60 -8 -12 -7 -8 -10 15 -10 29 -1 29 -1
10 -15 -20 -16 -88 -17 -78 -2 3 5 19 18 37 28 42 27 147 23 176 -6z m114 -31
c3 -8 2 -12 -4 -9 -6 3 -10 10 -10 16 0 14 7 11 14 -7z m-1194 2 c0 -2 -7 -7
-16 -10 -8 -3 -12 -2 -9 4 6 10 25 14 25 6z m3364 -34 c-30 -25 -82 -95 -94
-128 -12 -31 -15 -514 -5 -789 5 -127 4 -156 -6 -141 -9 14 -13 143 -17 472
l-5 452 26 44 c35 59 82 108 104 108 16 0 16 -2 -3 -18z m-1657 -14 c-3 -8 -6
-5 -6 6 -1 11 2 17 5 13 3 -3 4 -12 1 -19z m-2939 -20 c6 -6 12 -16 12 -22 0
-7 9 -28 19 -49 10 -20 16 -37 12 -37 -4 0 -45 16 -91 35 -78 32 -178 50 -140
25 8 -5 25 -10 36 -10 22 0 65 -47 117 -128 36 -56 44 -106 50 -332 l5 -185
-10 134 c-6 73 -14 128 -17 122 -4 -6 -14 33 -21 86 -8 54 -15 100 -15 103 -1
3 -12 26 -25 52 -20 41 -26 46 -43 37 -25 -14 -47 5 -28 24 10 10 11 9 6 -5
-4 -11 -2 -18 4 -18 26 0 10 49 -26 79 -60 50 -61 51 -65 41 -2 -5 -12 -2 -22
6 -16 11 -17 14 -4 14 9 0 40 11 70 25 45 22 62 25 108 19 30 -3 61 -11 68
-16z m2237 12 c-18 -8 -18 -9 -2 -9 35 -2 10 -26 -26 -26 -39 0 -52 18 -17 23
11 2 20 8 20 13 0 5 10 9 23 8 21 0 21 -1 2 -9z m-2685 -25 c0 -11 -12 -15
-52 -15 l-53 1 30 14 c41 18 75 19 75 0z m121 -2 c42 -8 35 -23 -10 -23 -50 0
-71 8 -71 27 0 11 7 13 26 9 15 -4 39 -10 55 -13z m4962 0 c-7 -2 -13 -9 -13
-14 0 -6 5 -7 12 -3 7 4 8 3 4 -5 -6 -9 -11 -9 -22 0 -21 17 -17 29 9 28 12 0
16 -3 10 -6z m-2132 -136 c-6 -16 -9 -32 -7 -35 3 -2 13 23 23 57 17 58 20 61
43 56 14 -3 31 -13 38 -22 6 -9 12 -14 12 -11 0 3 14 -7 31 -23 28 -26 31 -34
26 -70 -10 -75 -53 -145 -126 -204 -166 -134 -352 -162 -527 -79 -74 35 -150
97 -184 150 -32 51 -47 111 -31 127 6 6 11 19 11 30 0 10 3 16 8 14 9 -5 62
50 54 57 -3 3 -1 6 4 6 5 0 22 -28 37 -63 17 -38 45 -79 69 -103 l42 -39 -32
38 c-41 48 -68 103 -77 152 -10 56 8 34 30 -35 37 -117 166 -200 290 -187 133
14 258 139 267 267 1 14 3 8 5 -13 3 -22 0 -53 -6 -70z m1889 62 c-9 -21 -110
-86 -110 -72 0 15 73 102 88 106 26 6 34 -7 22 -34z m-1965 -58 c-19 -88 -112
-154 -215 -154 -85 0 -148 40 -189 120 -24 47 -29 84 -5 41 16 -30 27 -38 18
-13 -3 8 14 -5 38 -29 92 -93 232 -83 303 22 30 44 33 31 5 -18 l-21 -35 26
30 c14 17 28 40 31 53 9 34 17 19 9 -17z m-1205 -115 c-7 -7 -10 8 -10 51 0
90 14 113 18 29 2 -39 -2 -74 -8 -80z m397 97 c-3 -10 -5 -2 -5 17 0 19 2 27
5 18 2 -10 2 -26 0 -35z m669 18 c-26 -28 -87 -36 -125 -16 -38 19 -41 28 -5
15 36 -14 85 -12 114 5 34 19 36 18 16 -4z m-2499 -6 c-4 -8 -1 -17 5 -21 7
-4 8 -3 4 4 -10 17 3 14 49 -8 l40 -19 -95 0 c-52 1 -85 4 -72 7 13 4 23 10
23 15 -3 26 -1 29 13 18 10 -9 15 -8 20 4 3 8 8 15 12 15 3 0 4 -7 1 -15z
m1393 -40 c0 -30 -4 -55 -10 -55 -11 0 -14 69 -4 94 11 27 14 18 14 -39z m92
-33 c-9 -35 -10 -33 -10 28 0 55 1 61 10 37 6 -18 7 -40 0 -65z m938 38 c20 0
52 8 72 19 l37 18 -16 -23 c-8 -13 -29 -28 -47 -33 -17 -5 -23 -10 -13 -10 10
-1 32 6 50 16 30 15 31 15 18 0 -32 -40 -134 -46 -177 -11 -19 15 -19 16 1 9
53 -19 56 -15 13 14 -57 37 -62 46 -11 20 21 -10 53 -19 73 -19z m-2286 -35
c10 -19 15 -39 11 -44 -3 -5 1 -11 7 -14 10 -3 10 -11 1 -35 -8 -23 -8 -32 0
-32 6 0 3 -6 -8 -13 -10 -8 -15 -19 -11 -25 3 -6 2 -14 -4 -17 -6 -4 -10 -3
-8 2 1 8 -8 110 -17 181 -5 42 9 41 29 -3z m1741 -93 c-4 -5 -45 105 -44 121
0 7 11 -17 24 -53 13 -35 22 -66 20 -68z m2460 118 c-3 -5 -12 -10 -18 -10 -7
0 -6 4 3 10 19 12 23 12 15 0z m1642 -585 c0 -153 -2 -190 -7 -135 -9 91 -12
279 -9 540 l3 195 6 -195 c4 -107 7 -289 7 -405z m-2881 539 c-4 -9 -9 -15
-11 -12 -3 3 -3 13 1 22 4 9 9 15 11 12 3 -3 3 -13 -1 -22z m-2419 -36 c-2
-13 -4 -5 -4 17 -1 22 1 32 4 23 2 -10 2 -28 0 -40z m3766 -51 c-16 -27 -25
-32 -64 -34 -24 -2 -54 -5 -66 -7 -27 -4 -28 5 -9 42 25 48 68 80 111 84 37 3
40 1 43 -25 2 -15 -5 -42 -15 -60z m-355 37 c-27 -28 -51 -44 -58 -39 -8 5 -7
12 6 26 9 10 21 19 26 19 6 0 21 9 35 20 44 34 40 22 -9 -26z m207 36 c-27
-12 -43 -12 -25 0 8 5 22 9 30 9 10 0 8 -3 -5 -9z m-1165 -4 c0 -3 -4 -8 -10
-11 -5 -3 -10 -1 -10 4 0 6 5 11 10 11 6 0 10 -2 10 -4z m-1260 -159 c-1 -30
-62 77 -74 128 -4 19 9 2 34 -43 22 -40 40 -79 40 -85z m1664 143 c19 -1 -86
-50 -106 -50 -4 0 -8 14 -8 31 l0 32 46 -7 c26 -3 56 -6 68 -6z m743 -21 c-8
-12 -23 -19 -44 -19 -18 0 -33 -5 -33 -11 0 -7 10 -9 25 -7 27 6 30 1 16 -21
-12 -18 -61 -26 -61 -10 0 8 -4 8 -15 -1 -8 -7 -15 -8 -15 -3 0 5 -16 7 -35 5
-39 -5 -43 3 -15 36 17 20 100 59 100 46 0 -3 7 -1 16 4 8 4 28 6 44 4 26 -4
27 -6 17 -23z m36 9 c-11 -13 -35 -48 -52 -78 -34 -61 -42 -61 -11 -1 20 39
67 101 78 101 3 0 -4 -10 -15 -22z m-2363 -23 c0 -5 -5 -3 -10 5 -5 8 -10 20
-10 25 0 6 5 3 10 -5 5 -8 10 -19 10 -25z m1121 8 c-12 -20 -14 -14 -5 12 4 9
9 14 11 11 3 -2 0 -13 -6 -23z m829 6 c0 -11 -4 -17 -10 -14 -5 3 -10 13 -10
21 0 8 5 14 10 14 6 0 10 -9 10 -21z m-3017 -23 c3 -19 3 -44 0 -55 -5 -19 -6
-20 -29 -3 -23 16 -33 69 -17 85 18 19 41 5 46 -27z m2227 24 c0 -5 -5 -10
-11 -10 -5 0 -7 5 -4 10 3 6 8 10 11 10 2 0 4 -4 4 -10z m23 -15 c-3 -8 -11
-15 -17 -15 -7 0 -13 -7 -13 -15 0 -9 6 -14 14 -11 10 4 9 -3 -3 -27 -16 -30
-16 -31 -1 -18 55 45 -36 -95 -113 -175 -30 -32 -82 -75 -114 -96 -58 -37 -61
-38 -150 -38 l-91 0 78 35 c76 33 150 76 142 83 -2 2 -14 -2 -27 -9 -12 -6 9
18 49 55 62 58 90 93 160 202 7 10 1 -7 -13 -39 -27 -64 -15 -69 17 -6 11 23
24 37 30 33 7 -4 9 1 4 15 -3 12 -3 21 2 20 16 -4 43 13 36 24 -3 6 -1 7 5 3
6 -4 9 -13 5 -21z m-153 -39 c-30 -49 -36 -46 -8 3 12 22 24 38 26 36 3 -2 -6
-20 -18 -39z m-3692 -49 c10 15 52 -3 52 -22 0 -9 -13 -36 -30 -60 -55 -80
-60 -276 -10 -376 12 -22 18 -44 14 -47 -4 -4 -9 -1 -11 6 -10 28 -23 9 -24
-35 -1 -45 -1 -46 -10 -18 -13 40 -15 427 -4 540 8 71 10 81 13 45 2 -24 6
-39 10 -33z m2659 -17 c24 -32 69 -77 100 -101 76 -56 85 -66 43 -43 -50 28
-161 142 -188 194 -12 25 -17 37 -10 26 7 -10 32 -44 55 -76z m1950 84 c-3 -3
-12 -4 -19 -1 -8 3 -5 6 6 6 11 1 17 -2 13 -5z m-4754 -327 c-4 -174 -8 -316
-10 -314 -6 7 -4 506 3 573 4 35 8 63 9 62 2 -2 1 -146 -2 -321z m4837 313
c20 -6 21 -8 5 -8 -11 0 -31 4 -45 8 -20 6 -21 8 -5 8 11 0 31 -4 45 -8z m73
-60 c-7 -28 -33 -25 -33 3 0 13 3 27 7 30 11 12 31 -13 26 -33z m-3178 -10
c10 -11 16 -20 13 -20 -3 0 -13 9 -23 20 -10 11 -16 20 -13 20 3 0 13 -9 23
-20z m2045 -20 c-48 -60 -193 -170 -224 -170 -6 0 19 17 54 38 36 20 94 67
130 104 36 37 67 67 68 67 2 1 -11 -17 -28 -39z m569 19 c-6 -12 -24 -42 -40
-68 l-29 -45 1 47 c2 41 6 50 33 67 40 25 49 25 35 -1z m-3779 6 c0 -3 -9 -16
-20 -27 -15 -17 -23 -19 -32 -10 -8 8 -8 15 2 27 12 14 50 22 50 10z m2190
-30 c11 -13 10 -14 -4 -9 -9 3 -16 10 -16 15 0 13 6 11 20 -6z m20 -35 c0 -5
-2 -10 -4 -10 -3 0 -8 5 -11 10 -3 6 -1 10 4 10 6 0 11 -4 11 -10z m2219 -92
c-2 -115 -7 -106 -11 20 -2 45 0 82 4 82 5 0 7 -46 7 -102z m-2154 24 c-5 -5
-45 36 -45 46 0 3 11 -5 25 -18 14 -13 23 -26 20 -28z m2856 24 c-10 -12 -7
-13 22 -4 24 7 40 7 53 0 16 -10 14 -11 -17 -12 -43 0 -53 -8 -36 -28 9 -12 9
-14 0 -9 -7 5 -17 -1 -24 -15 -9 -16 -9 -23 0 -26 15 -5 14 -20 -1 -19 -39 1
-48 -4 -48 -28 l0 -25 -20 20 c-14 14 -20 33 -20 68 0 57 8 70 46 82 46 14 59
12 45 -4z m-4047 -31 c3 -8 1 -15 -4 -15 -6 0 -10 7 -10 15 0 8 2 15 4 15 2 0
6 -7 10 -15z m3408 -17 c-8 -8 -9 -4 -5 13 4 13 8 18 11 10 2 -7 -1 -18 -6
-23z m-3112 1 c0 -6 -4 -7 -10 -4 -5 3 -10 11 -10 16 0 6 5 7 10 4 6 -3 10
-11 10 -16z m3896 8 c4 -4 0 -7 -9 -7 -9 0 -18 4 -21 9 -7 10 20 9 30 -2z
m-5580 -94 c-1 -54 2 -118 6 -143 6 -35 5 -41 -3 -27 -14 25 -24 162 -15 221
4 25 8 46 10 46 1 0 2 -44 2 -97z m2834 77 c8 -5 11 -10 5 -10 -5 0 -17 5 -25
10 -8 5 -10 10 -5 10 6 0 17 -5 25 -10z m-1420 -57 c19 -91 -7 -244 -42 -251
-13 -3 -13 5 -1 70 10 49 12 100 8 156 -6 69 -4 82 8 82 11 0 19 -18 27 -57z
m1335 39 c-3 -3 -11 0 -18 7 -9 10 -8 11 6 5 10 -3 15 -9 12 -12z m-2668 -54
c-2 -13 -4 -3 -4 22 0 25 2 35 4 23 2 -13 2 -33 0 -45z m1279 -1 c5 -32 3 -47
-5 -47 -6 0 -11 11 -11 24 0 13 -3 39 -6 57 -5 25 -4 31 5 24 6 -6 14 -32 17
-58z m1521 57 c-3 -3 -12 -4 -19 -1 -8 3 -5 6 6 6 11 1 17 -2 13 -5z m-2274
-17 c37 37 67 -49 30 -89 -24 -26 -50 -23 -58 9 -3 15 -13 32 -22 38 -13 10
-13 15 -3 35 11 21 14 22 25 7 11 -15 13 -15 28 0z m542 -6 c3 -5 1 -12 -5
-16 -5 -3 -10 1 -10 9 0 18 6 21 15 7z m1732 3 c-3 -3 -12 -4 -19 -1 -8 3 -5
6 6 6 11 1 17 -2 13 -5z m368 -9 c-16 -8 -37 -14 -45 -14 -8 0 1 7 20 14 46
18 64 17 25 0z m-3095 -185 c7 -25 21 -62 31 -82 21 -42 24 -52 9 -43 -17 10
-59 100 -70 149 -5 25 -7 72 -3 108 l7 63 7 -75 c4 -41 12 -95 19 -120z m5340
186 c0 -2 -7 -6 -15 -10 -8 -3 -15 -1 -15 4 0 6 7 10 15 10 8 0 15 -2 15 -4z
m-2743 -32 c-7 -7 -37 7 -37 17 0 6 9 5 21 -1 11 -7 19 -14 16 -16z m150 10
c-3 -3 -12 -4 -19 -1 -8 3 -5 6 6 6 11 1 17 -2 13 -5z m280 0 c-3 -3 -12 -4
-19 -1 -8 3 -5 6 6 6 11 1 17 -2 13 -5z m-230 -10 c-3 -3 -12 -4 -19 -1 -8 3
-5 6 6 6 11 1 17 -2 13 -5z m186 -1 c-7 -2 -19 -2 -25 0 -7 3 -2 5 12 5 14 0
19 -2 13 -5z m-318 -25 c7 -7 2 -8 -15 -3 -14 4 -29 12 -35 17 -7 7 -2 8 15 3
14 -4 30 -12 35 -17z m470 13 c-17 -15 -107 -41 -139 -40 -22 1 -14 5 29 14
33 8 71 18 85 24 32 13 36 13 25 2z m-1755 -42 c0 -5 -4 -9 -10 -9 -5 0 -10 7
-10 16 0 8 5 12 10 9 6 -3 10 -10 10 -16z m1393 4 c-7 -2 -19 -2 -25 0 -7 3
-2 5 12 5 14 0 19 -2 13 -5z m120 -10 c-7 -2 -19 -2 -25 0 -7 3 -2 5 12 5 14
0 19 -2 13 -5z m1617 3 c0 -3 -4 -8 -10 -11 -5 -3 -10 -1 -10 4 0 6 5 11 10
11 6 0 10 -2 10 -4z m825 -15 c25 -1 27 -3 13 -11 -11 -7 -26 -7 -43 0 -32 12
-35 12 -35 1 0 -5 9 -13 21 -16 11 -4 18 -9 15 -12 -7 -7 -56 25 -56 36 0 4
12 7 28 6 15 -1 41 -3 57 -4z m-5008 -23 c-3 -8 -6 -5 -6 6 -1 11 2 17 5 13 3
-3 4 -12 1 -19z m4181 -38 c-1 -16 -6 -30 -10 -30 -9 0 -10 7 -2 38 9 31 15
27 12 -8z m-4158 -15 c0 -5 -5 -3 -10 5 -5 8 -10 20 -10 25 0 6 5 3 10 -5 5
-8 10 -19 10 -25z m950 0 c0 -8 -4 -17 -10 -20 -6 -4 -10 5 -10 20 0 15 4 24
10 20 6 -3 10 -12 10 -20z m1252 -2 c16 -20 22 -63 8 -63 -5 0 -21 11 -37 24
-24 20 -25 26 -14 40 17 20 24 20 43 -1z m553 7 c-3 -5 -17 -10 -31 -10 -13 0
-24 5 -24 10 0 6 14 10 31 10 17 0 28 -4 24 -10z m2304 1 c19 -12 6 -41 -18
-41 -26 0 -36 17 -21 35 14 17 20 18 39 6z m-969 -63 c0 -11 -8 -18 -20 -18
-16 0 -20 7 -20 35 0 34 1 34 20 18 11 -10 20 -25 20 -35z m57 -45 c-2 -16 -4
-3 -4 27 0 30 2 43 4 28 2 -16 2 -40 0 -55z m169 70 c-11 -12 -56 -14 -56 -3
0 5 14 10 32 10 17 0 28 -3 24 -7z m-1572 -26 c-1 -9 4 -13 11 -11 7 3 15 1
19 -4 3 -5 -12 -9 -33 -10 -33 -2 -37 1 -35 21 1 12 3 23 3 24 1 1 9 0 19 -2
9 -1 16 -9 16 -18z m1363 -9 c-3 -7 -5 -2 -5 12 0 14 2 19 5 13 2 -7 2 -19 0
-25z m-2969 -27 c1 -17 -3 -31 -9 -31 -6 0 -8 8 -4 19 3 11 1 22 -5 26 -5 3
-10 1 -10 -6 0 -7 -2 -10 -5 -8 -2 3 -2 15 2 27 8 31 28 13 31 -27z m2819 27
c-3 -8 -6 -5 -6 6 -1 11 2 17 5 13 3 -3 4 -12 1 -19z m-1292 -38 c8 -6 13 -17
11 -23 -1 -7 -1 -9 1 -4 3 4 21 7 41 6 32 0 34 -1 15 -9 -13 -5 -23 -17 -23
-27 0 -14 -2 -15 -9 -4 -6 9 -10 10 -16 2 -4 -7 -1 -20 7 -29 12 -15 11 -16
-4 -3 -10 7 -18 20 -18 27 0 8 -7 14 -15 14 -8 0 -15 5 -15 11 0 5 5 7 12 3 8
-5 9 0 4 17 -4 13 -9 33 -10 44 -2 11 -1 12 1 3 2 -9 10 -22 18 -28z m2705 30
c0 -5 -2 -10 -4 -10 -3 0 -8 5 -11 10 -3 6 -1 10 4 10 6 0 11 -4 11 -10z
m-3657 -21 c44 2 45 -3 11 -32 -24 -21 -27 -31 -31 -112 -3 -54 -1 -107 6
-133 11 -39 18 -46 59 -63 76 -32 134 -63 154 -81 17 -17 7 -18 -212 -18 -126
0 -330 -5 -452 -11 -137 -6 -232 -7 -248 -1 l-24 9 24 13 c13 7 82 17 154 22
153 10 174 17 182 58 4 17 13 30 21 30 8 0 22 18 30 40 14 35 27 46 98 85 45
24 88 51 95 60 7 8 15 45 18 81 l5 66 36 -7 c20 -4 53 -7 74 -6z m1444 -11
c11 -13 23 -36 27 -53 14 -64 69 -192 101 -237 39 -53 82 -79 182 -107 l68
-20 -360 1 c-198 0 -349 3 -336 5 14 3 35 12 49 21 15 10 41 15 69 13 68 -3
93 18 93 78 0 41 3 49 25 59 49 22 60 98 20 138 -14 14 -25 31 -25 38 0 13 51
85 61 86 3 0 15 -10 26 -22z m810 0 c-3 -8 -6 -5 -6 6 -1 11 2 17 5 13 3 -3 4
-12 1 -19z m-1033 -8 c-14 -14 -54 -21 -54 -9 0 5 11 9 25 9 14 0 25 5 25 12
0 6 3 8 7 5 4 -4 2 -12 -3 -17z m-144 -10 c0 -5 -5 -10 -11 -10 -5 0 -7 5 -4
10 3 6 8 10 11 10 2 0 4 -4 4 -10z m1480 -10 c0 -5 -4 -10 -10 -10 -5 0 -10 5
-10 10 0 6 5 10 10 10 6 0 10 -4 10 -10z m100 6 c0 -2 -9 -6 -20 -9 -11 -3
-20 -1 -20 4 0 5 9 9 20 9 11 0 20 -2 20 -4z m-217 -21 c4 -8 2 -17 -3 -20 -6
-4 -10 3 -10 14 0 25 6 27 13 6z m-406 -37 c-3 -8 -6 -5 -6 6 -1 11 2 17 5 13
3 -3 4 -12 1 -19z m624 -4 c-11 -8 -26 -12 -32 -8 -14 8 2 19 32 21 l22 2 -22
-15z m14 -14 c-3 -5 1 -10 9 -10 9 0 16 -4 16 -8 0 -4 -20 -9 -44 -10 -30 -1
-48 4 -57 15 -13 15 -12 15 8 5 22 -12 53 -7 53 9 0 5 5 9 11 9 5 0 7 -4 4
-10z m-138 -97 c-2 -16 -4 -5 -4 22 0 28 2 40 4 28 2 -13 2 -35 0 -50z m125
15 c-9 -9 -15 -9 -24 0 -9 9 -7 12 12 12 19 0 21 -3 12 -12z m-1592 -48 c0 -5
-2 -10 -4 -10 -3 0 -8 5 -11 10 -3 6 -1 10 4 10 6 0 11 -4 11 -10z m1400 -39
c0 -21 -24 -29 -35 -11 -3 5 -3 20 1 34 5 22 8 23 20 11 8 -7 14 -23 14 -34z
m-123 -13 c-3 -8 -6 -5 -6 6 -1 11 2 17 5 13 3 -3 4 -12 1 -19z m-3710 -152
c-6 -17 -31 -19 -126 -11 -95 8 -94 12 0 23 78 9 131 4 126 -12z m2173 -10 c0
-2 3 -12 6 -20 4 -11 2 -15 -7 -11 -31 11 -69 13 -69 4 0 -6 -7 -6 -19 0 -14
8 -22 7 -31 -4 -17 -21 -24 -11 -10 14 9 18 20 21 70 21 33 0 60 -2 60 -4z
m1668 -143 c2 -16 -2 -23 -13 -23 -12 0 -16 -7 -13 -27 2 -23 -1 -29 -21 -31
-22 -3 -23 -1 -17 28 3 18 6 43 6 57 0 21 4 24 28 21 19 -2 28 -9 30 -25z
m165 10 c-7 -2 -19 -2 -25 0 -7 3 -2 5 12 5 14 0 19 -2 13 -5z m-1558 -53 c-3
-5 -17 -10 -31 -10 -14 0 -22 4 -19 10 3 6 17 10 31 10 14 0 22 -4 19 -10z
m-448 -32 c-3 -7 -5 -2 -5 12 0 14 2 19 5 13 2 -7 2 -19 0 -25z m2083 -13 c0
-12 -13 -15 -55 -15 -42 0 -55 3 -55 15 0 12 13 15 55 15 42 0 55 -3 55 -15z"/>
<path d="M2980 4048 c0 -14 15 -16 27 -3 10 11 9 13 -7 12 -11 -1 -20 -5 -20
-9z"/>
<path d="M3805 3551 c-6 -20 2 -111 10 -120 15 -14 26 23 23 74 -3 59 -21 84
-33 46z"/>
<path d="M3627 3532 c-22 -24 -21 -45 2 -66 26 -24 53 -17 70 18 12 26 11 30
-10 50 -13 12 -17 13 -10 4 26 -35 -11 -66 -39 -33 -10 12 -10 18 0 30 18 21
6 19 -13 -3z"/>
<path d="M3972 3543 c20 -5 32 -33 19 -46 -15 -15 -41 0 -41 24 0 18 -2 19
-15 9 -21 -17 -19 -43 4 -64 25 -23 48 -18 69 16 15 25 15 28 -3 47 -10 12
-25 20 -34 20 -14 -1 -14 -2 1 -6z"/>
<path d="M4187 3532 c-32 -35 -15 -82 28 -82 25 0 55 29 55 53 0 21 -27 47
-49 47 -10 0 -25 -8 -34 -18z m39 -22 c9 0 13 -4 9 -10 -9 -14 -35 0 -34 19 0
10 2 11 6 4 2 -7 11 -13 19 -13z"/>
<path d="M3765 3342 c-3 -3 -5 -16 -5 -29 0 -15 6 -23 18 -23 15 0 15 -2 2
-11 -13 -9 -13 -10 0 -6 21 5 26 74 6 74 -9 0 -18 -3 -21 -5z"/>
<path d="M4114 3326 c-9 -23 0 -51 16 -51 10 0 15 10 15 29 0 32 -21 47 -31
22z"/>
<path d="M3659 1650 c13 -11 27 -20 32 -20 18 0 8 10 -23 25 l-33 16 24 -21z"/>
<path d="M750 3180 c0 -5 7 -10 16 -10 8 0 12 5 9 10 -3 6 -10 10 -16 10 -5 0
-9 -4 -9 -10z"/>
<path d="M3934 610 c-37 -15 -34 -26 6 -22 22 2 50 -3 69 -12 34 -18 41 -9 14
17 -24 21 -63 28 -89 17z"/>
</g>
</svg>
