<svg version="1.1" xmlns="http://www.w3.org/2000/svg" xmlns:xlink="http://www.w3.org/1999/xlink" width="32.000000pt" height="32.000000pt" viewBox="0,0,256,256"><g fill="#ff0000" fill-rule="nonzero" stroke="none" stroke-width="1" stroke-linecap="butt" stroke-linejoin="miter" stroke-miterlimit="10" stroke-dasharray="" stroke-dashoffset="0" font-family="none" font-weight="none" font-size="none" text-anchor="none" style="mix-blend-mode: normal"><g transform="translate(-0.73665,-0.47824) scale(8,8)"><g transform="translate(0,32) scale(0.1,-0.1)"><path d="M126,260c-54,-22 -101,-42 -103,-44c-3,-3 0,-21 7,-41c12,-36 13,-37 59,-32c25,2 56,8 69,12c22,7 22,6 16,-46l-6,-54l48,-14c27,-7 57,-15 67,-18c13,-4 17,1 17,25c0,26 -4,31 -36,37l-37,6l7,47c3,26 12,52 20,57c8,6 21,15 30,20c11,8 13,18 8,45c-7,30 -12,35 -37,37c-17,1 -75,-15 -129,-37zM265,282c-16,-14 -175,-75 -181,-70c-3,3 35,22 83,41c90,37 115,44 98,29zM55,200c-3,-5 -10,-10 -16,-10c-5,0 -9,5 -9,10c0,6 7,10 16,10c8,0 12,-4 9,-10zM90,158c0,-5 -4,-8 -10,-8c-5,0 -10,10 -10,23c0,18 2,19 10,7c5,-8 10,-18 10,-22zM224,153c-3,-21 -10,-42 -14,-47c-5,-5 -4,9 1,30c4,22 9,42 9,47c0,4 2,7 5,7c3,0 3,-17 -1,-37zM197,128c-3,-7 -5,-2 -5,12c0,14 2,19 5,13c2,-7 2,-19 0,-25zM220,70c0,-5 -4,-10 -10,-10c-5,0 -10,5 -10,10c0,6 5,10 10,10c6,0 10,-4 10,-10zM276,70c8,0 14,-9 14,-19c0,-18 -3,-19 -30,-10c-16,6 -30,18 -30,26c0,10 6,13 16,9c9,-3 22,-6 30,-6z"></path></g></g></g></svg>