<svg version="1.1" xmlns="http://www.w3.org/2000/svg" xmlns:xlink="http://www.w3.org/1999/xlink" width="32.000000pt" height="32.000000pt" viewBox="0,0,256,256"><g fill="#ff0000" fill-rule="nonzero" stroke="none" stroke-width="1" stroke-linecap="butt" stroke-linejoin="miter" stroke-miterlimit="10" stroke-dasharray="" stroke-dashoffset="0" font-family="none" font-weight="none" font-size="none" text-anchor="none" style="mix-blend-mode: normal"><g transform="translate(0,0.704) scale(8,8)"><g transform="translate(0,32) scale(0.1,-0.1)"><path d="M36,288c-18,-57 -16,-67 13,-82c19,-10 30,-26 35,-47c12,-59 8,-68 -29,-75c-31,-5 -35,-10 -35,-36c0,-24 4,-29 18,-25c9,3 39,11 66,18l48,14l-6,54c-6,52 -6,53 16,46c13,-4 44,-10 69,-12c45,-5 47,-4 58,28c6,17 11,35 11,39c0,11 -207,90 -236,90c-14,0 -26,-6 -28,-12zM150,254c50,-20 89,-39 86,-42c-6,-5 -165,56 -180,70c-17,14 2,9 94,-28zM290,200c0,-5 -4,-10 -9,-10c-6,0 -13,5 -16,10c-3,6 1,10 9,10c9,0 16,-4 16,-10zM109,141c5,-24 6,-39 1,-35c-8,10 -25,92 -16,84c2,-3 9,-25 15,-49zM246,153c-11,-11 -17,4 -9,23c7,18 8,18 11,1c2,-10 1,-21 -2,-24zM127,128c-3,-7 -5,-2 -5,12c0,14 2,19 5,13c2,-7 2,-19 0,-25zM90,66c0,-8 -13,-19 -30,-25c-26,-9 -30,-8 -30,9c0,17 7,20 53,29c4,0 7,-5 7,-13zM120,70c0,-5 -4,-10 -10,-10c-5,0 -10,5 -10,10c0,6 5,10 10,10c6,0 10,-4 10,-10z"></path></g></g></g></svg>