<svg version="1.1" xmlns="http://www.w3.org/2000/svg" xmlns:xlink="http://www.w3.org/1999/xlink" width="32.000000pt" height="32.000000pt" viewBox="0,0,256,256"><g fill="#ff0000" fill-rule="nonzero" stroke="none" stroke-width="1" stroke-linecap="butt" stroke-linejoin="miter" stroke-miterlimit="10" stroke-dasharray="" stroke-dashoffset="0" font-family="none" font-weight="none" font-size="none" text-anchor="none" style="mix-blend-mode: normal"><g transform="translate(4,2.8) scale(8,8)"><g transform="translate(0,32) scale(0.1,-0.1)"><path d="M14,301c11,-11 25,-21 33,-21c7,0 12,-6 10,-12c-1,-7 8,-14 20,-16c15,-2 20,-8 16,-19c-5,-13 0,-15 25,-11c26,4 29,2 20,-9c-8,-10 -8,-17 0,-25c9,-9 22,-9 55,0c38,10 44,9 59,-8c9,-11 18,-25 20,-31c2,-6 12,-10 23,-8c16,3 10,13 -33,56c-57,57 -152,108 -222,119l-45,6z"></path><path d="M200,110c0,-5 5,-10 10,-10c23,0 8,-19 -17,-22c-25,-3 -28,-7 -28,-38v-35h75h75v35c0,31 -3,35 -27,38c-26,3 -41,22 -18,22c6,0 10,5 10,10c0,6 -18,10 -40,10c-22,0 -40,-4 -40,-10z"></path></g></g></g></svg>