<svg version="1.1" xmlns="http://www.w3.org/2000/svg" xmlns:xlink="http://www.w3.org/1999/xlink" width="32.000000pt" height="32.000000pt" viewBox="0,0,256,256"><g fill="#ff0000" fill-rule="nonzero" stroke="none" stroke-width="1" stroke-linecap="butt" stroke-linejoin="miter" stroke-miterlimit="10" stroke-dasharray="" stroke-dashoffset="0" font-family="none" font-weight="none" font-size="none" text-anchor="none" style="mix-blend-mode: normal"><g transform="translate(-1.05107,1.70451) scale(8,8)"><g transform="translate(0,32) scale(0.1,-0.1)"><path d="M239,306c-63,-17 -135,-61 -187,-115c-38,-39 -42,-47 -26,-50c10,-2 20,2 22,8c2,6 11,20 20,31c15,17 21,18 59,8c33,-9 46,-9 55,0c8,8 8,15 0,25c-9,11 -6,13 20,9c25,-4 30,-2 25,11c-4,11 1,17 16,19c12,2 21,9 20,16c-2,6 3,12 10,12c8,0 22,9 32,20c17,19 17,20 -1,19c-10,0 -40,-6 -65,-13z"></path><path d="M40,110c0,-5 5,-10 10,-10c23,0 8,-19 -17,-22c-25,-3 -28,-7 -28,-38v-35h75h75v35c0,31 -3,35 -27,38c-26,3 -41,22 -18,22c6,0 10,5 10,10c0,6 -18,10 -40,10c-22,0 -40,-4 -40,-10z"></path></g></g></g></svg>