<svg version="1.1" xmlns="http://www.w3.org/2000/svg" xmlns:xlink="http://www.w3.org/1999/xlink" width="32.000000pt" height="32.000000pt" viewBox="0,0,256,256"><g fill="#ff0000" fill-rule="nonzero" stroke="none" stroke-width="1" stroke-linecap="butt" stroke-linejoin="miter" stroke-miterlimit="10" stroke-dasharray="" stroke-dashoffset="0" font-family="none" font-weight="none" font-size="none" text-anchor="none" style="mix-blend-mode: normal"><g transform="translate(0.37411,0) scale(8,8)"><g transform="translate(0,32) scale(0.1,-0.1)"><path d="M70,293c0,-5 9,-18 20,-28c11,-10 20,-14 20,-8c0,5 -9,18 -20,28c-11,10 -20,14 -20,8z"></path><path d="M130,271c0,-17 5,-33 10,-36c6,-3 10,-16 10,-28c-1,-19 -8,-14 -45,28c-35,38 -47,47 -57,37c-9,-9 -7,-16 7,-32c10,-11 24,-20 31,-20c7,0 36,-27 65,-60c29,-33 54,-58 57,-55c3,3 -8,19 -24,36c-27,28 -29,35 -25,95c2,53 0,64 -13,64c-11,0 -16,-9 -16,-29zM147,258c-3,-7 -5,-2 -5,12c0,14 2,19 5,13c2,-7 2,-19 0,-25zM75,250c3,-5 1,-10 -4,-10c-6,0 -11,5 -11,10c0,6 2,10 4,10c3,0 8,-4 11,-10z"></path><path d="M182,275c0,-16 2,-22 5,-12c2,9 2,23 0,30c-3,6 -5,-1 -5,-18z"></path><path d="M225,280c-10,-11 -16,-22 -13,-25c3,-3 13,6 22,20c20,30 16,32 -9,5z"></path><path d="M210,230c-24,-28 -40,-53 -37,-56c3,-3 13,6 22,20c10,14 25,26 35,26c21,0 54,35 45,49c-11,19 -22,12 -65,-39z"></path><path d="M121,126c-13,-14 -20,-29 -16,-35c3,-6 1,-11 -4,-11c-6,0 -11,8 -12,18c0,12 -3,10 -10,-7c-12,-29 -9,-32 20,-24c13,3 20,11 17,19c-3,7 -1,16 4,19c10,6 33,45 27,45c-2,0 -14,-11 -26,-24z"></path><path d="M150,96c0,-19 -5,-36 -10,-38c-7,-2 -5,-11 4,-23c15,-20 15,-20 30,0c17,23 13,33 -8,16c-11,-10 -13,-4 -8,34c2,25 2,45 -2,45c-3,0 -6,-15 -6,-34z"></path><path d="M230,96c0,-8 -8,-16 -17,-18c-15,-3 -14,-5 5,-10c18,-5 22,-2 22,18c0,13 -2,24 -5,24c-3,0 -5,-6 -5,-14z"></path></g></g></g></svg>