<svg version="1.1" xmlns="http://www.w3.org/2000/svg" xmlns:xlink="http://www.w3.org/1999/xlink" width="500.000000pt" height="500.000000pt" viewBox="0,0,256,256"><g fill="#ff0000" fill-rule="nonzero" stroke="none" stroke-width="1" stroke-linecap="butt" stroke-linejoin="miter" stroke-miterlimit="10" stroke-dasharray="" stroke-dashoffset="0" font-family="none" font-weight="none" font-size="none" text-anchor="none" style="mix-blend-mode: normal"><g transform="translate(0.73732,-0.44074) scale(0.512,0.512)"><g transform="translate(0,500) scale(0.1,-0.1)"><path d="M4835,4657c-71,-40 -220,-122 -329,-183c-192,-105 -201,-111 -235,-165c-31,-48 -58,-70 -186,-156c-82,-56 -354,-239 -604,-407c-250,-168 -457,-303 -462,-301c-18,12 -95,-34 -112,-67c-17,-32 -100,-93 -115,-84c-14,8 -275,-14 -288,-24c-16,-14 -134,43 -134,65c0,8 -9,32 -20,54c-17,30 -28,40 -55,45c-80,15 -134,-17 -121,-70c4,-13 2,-24 -2,-24c-5,0 -50,51 -100,113c-50,61 -111,135 -136,162c-40,45 -46,49 -60,34c-15,-14 -13,-17 24,-38c23,-13 40,-24 38,-26c-2,-2 -30,4 -64,13c-33,8 -68,13 -77,9c-26,-10 -54,-77 -64,-154l-9,-73l50,-19c28,-10 67,-22 86,-26c19,-4 48,-14 63,-22c16,-8 32,-12 35,-8c3,3 8,35 10,70c2,36 8,65 13,65c5,0 9,-5 9,-11c0,-6 28,-49 63,-95c60,-82 63,-84 101,-82c32,2 40,-1 47,-20l9,-23l24,28c29,34 42,26 27,-18c-21,-62 -18,-66 74,-95l86,-27l23,22c26,25 36,27 36,6c0,-19 3,-19 51,6c23,11 43,19 45,17c4,-5 -51,-45 -201,-146l-110,-74l-105,5l-105,5l-22,-34l-22,-34l39,-20c44,-22 48,-31 24,-50c-13,-11 -24,-4 -77,47c-61,60 -64,62 -140,74c-43,6 -79,10 -82,8c-2,-3 44,-41 102,-84c103,-77 130,-105 101,-105c-7,0 -77,47 -155,105c-78,58 -146,105 -152,105c-15,0 -92,-100 -113,-147c-14,-32 -16,-48 -9,-62c17,-31 78,-79 141,-111c59,-30 83,-59 38,-46c-51,15 -187,25 -248,20c-88,-8 -177,-38 -247,-83c-55,-35 -113,-92 -113,-111c0,-5 -29,-40 -64,-78c-70,-77 -102,-145 -112,-241l-6,-56l-122,-83c-67,-45 -125,-82 -130,-82c-4,0 -6,96 -4,213c4,237 7,250 75,306c75,63 188,75 262,30c30,-18 36,-19 49,-6c13,13 5,20 -70,56c-74,36 -93,41 -154,41c-139,0 -221,-68 -311,-258c-70,-148 -106,-200 -150,-218c-30,-13 -38,-13 -64,0c-28,14 -29,14 -17,-7c6,-12 16,-25 22,-29c19,-13 95,-9 133,7c43,18 43,18 43,1c0,-23 -57,-64 -112,-81c-135,-40 -290,3 -359,98c-16,23 -29,33 -29,24c0,-9 5,-19 10,-22c6,-3 10,-15 10,-26c0,-30 34,-90 72,-125c52,-50 132,-85 232,-101c50,-8 93,-16 95,-19c11,-11 -98,-46 -161,-51l-71,-6l39,-20c21,-11 52,-23 68,-26c16,-4 31,-11 33,-16c2,-6 -53,-48 -122,-94c-69,-46 -125,-86 -125,-88c0,-3 9,-18 20,-33l21,-29l32,20c18,11 120,80 227,154c333,229 553,379 602,410c26,17 93,62 150,100c57,39 182,124 278,190c96,66 184,128 195,138c11,10 40,30 65,44c25,15 72,46 105,70c33,24 95,67 138,96c42,29 115,79 162,111c75,52 88,58 109,48c21,-9 29,-5 80,47c31,31 56,61 56,66c0,6 62,52 138,103c75,51 202,138 282,193l144,99h68c41,0 68,-4 68,-11c0,-5 5,-7 11,-4c6,4 8,9 5,12c-3,3 13,39 35,81c45,85 27,70 438,350c102,69 240,163 306,209c346,237 448,303 467,303c12,0 48,5 81,12c56,12 66,19 320,241c279,243 294,257 287,257c-3,-1 -63,-33 -135,-73z"></path><path d="M3485,4232l-600,-3l-118,-84c-65,-45 -115,-85 -110,-88c4,-3 31,-8 58,-12c57,-7 224,-36 680,-115c66,-11 134,-22 150,-23c23,-1 87,35 280,158c138,87 254,162 260,167c5,4 7,7 5,6c-3,-2 -275,-4 -605,-6z"></path><path d="M1960,4159c-121,-35 -204,-113 -248,-230c-17,-46 -21,-77 -19,-157c1,-55 5,-103 9,-107c4,-4 27,7 52,24c24,17 56,35 70,41c16,6 26,17 26,30c0,34 38,130 65,166c54,71 165,94 281,59c27,-8 50,-15 50,-15c4,0 74,173 72,175c-2,1 -33,9 -70,19c-88,21 -206,19 -288,-5z"></path><path d="M2018,3944c-73,-23 -118,-97 -118,-197c0,-38 1,-39 136,-186c7,-8 2,18 -11,58c-35,104 -42,151 -22,151c9,0 26,-13 39,-30c24,-33 35,-36 73,-18c21,9 25,16 20,36c-4,16 -1,28 7,33c21,14 98,11 103,-3c2,-7 9,-32 15,-55c16,-65 30,-51 30,31c0,59 -4,80 -23,107c-44,67 -161,101 -249,73z"></path><path d="M2117,3681c-37,-16 -38,-17 -31,-56c9,-59 36,-169 43,-177c12,-14 115,47 138,81l23,34l-55,49c-30,27 -61,57 -67,67c-12,16 -16,16 -51,2z"></path><path d="M3391,3505c-7,-33 -21,-98 -32,-144c-11,-46 -19,-85 -17,-86c2,-1 23,3 48,9c42,10 45,14 48,46c1,19 -6,80 -16,135l-19,100z"></path><path d="M3255,3340c-8,-16 -15,-51 -15,-78c0,-27 -2,-51 -4,-53c-3,-3 -23,-3 -46,-1c-40,4 -41,5 -35,34c7,28 5,29 -16,23c-51,-15 -177,-90 -242,-143c-135,-110 -337,-338 -490,-553c-44,-62 -50,-67 -93,-73c-26,-3 -60,-6 -75,-6h-29l-2,-200c-1,-110 -2,-210 -2,-222c-1,-30 76,-88 189,-142c86,-41 155,-65 310,-107c86,-23 357,-70 364,-63c8,8 14,141 7,167c-5,20 -19,26 -98,46c-191,46 -330,116 -435,219c-67,65 -131,177 -119,208c10,27 48,12 60,-23c41,-120 207,-238 462,-328c54,-19 99,-33 101,-31c2,1 -11,31 -28,65c-28,56 -30,64 -16,78c14,14 18,11 42,-26c15,-22 29,-41 31,-41c11,0 45,102 58,172c37,202 29,346 -24,426c-51,77 -58,205 -14,253c32,36 67,16 40,-23c-9,-12 -16,-42 -16,-65c0,-52 35,-148 61,-166c10,-8 29,-29 42,-48c15,-23 49,-48 102,-75l80,-41l10,-79c10,-76 11,-79 38,-82c24,-3 27,0 27,28c0,38 26,80 50,80c16,0 50,-53 50,-77c0,-6 9,-18 19,-27c18,-17 20,-15 45,39c14,31 34,69 46,85c22,30 27,75 9,86c-20,12 -80,115 -105,180c-30,81 -32,165 -5,210l19,31l-63,117c-49,90 -60,118 -49,123c10,4 14,23 14,72c-1,60 -2,64 -15,47c-8,-11 -17,-34 -21,-52c-5,-29 -12,-34 -71,-53c-35,-12 -68,-19 -73,-16c-4,3 -11,22 -15,42c-7,36 -31,93 -40,93c-2,0 -11,-13 -20,-30zM2960,2872c-153,-127 -228,-269 -246,-469c-4,-40 -9,-73 -11,-73c-2,0 -17,7 -32,15c-28,14 -28,16 -20,62c32,179 166,383 319,486c42,29 37,18 -10,-21z"></path><path d="M1668,3282c-42,-42 -87,-119 -88,-148c0,-8 14,-5 37,7c40,20 173,28 173,10c0,-5 -24,-15 -54,-21c-45,-9 -136,-59 -136,-74c0,-2 21,-16 47,-30l47,-27l48,48c53,52 58,48 28,-26l-19,-50l32,-5c47,-7 200,-33 217,-38c11,-2 16,7 18,33c4,42 -4,50 -130,119c-47,25 -78,48 -78,58c0,8 22,41 50,73l49,57l-77,25c-42,14 -86,28 -97,31c-16,5 -32,-6 -67,-42z"></path><path d="M1975,3273c-15,-24 -49,-62 -75,-86l-48,-42l97,-56l97,-56l59,70l58,70l-44,36c-24,19 -60,51 -80,71l-37,35z"></path><path d="M2876,3194c-276,-151 -464,-319 -550,-488l-27,-54l26,-41l27,-41l41,63c123,191 330,408 526,554c131,97 123,99 -43,7z"></path><path d="M2087,2703c-4,-3 -7,-11 -7,-17c0,-6 5,-5 12,2c6,6 9,14 7,17c-3,3 -9,2 -12,-2z"></path><path d="M1970,2624c-36,-25 -72,-49 -80,-54c-8,-5 -12,-12 -8,-15c10,-11 148,-35 197,-35c42,0 43,1 37,28c-7,26 -66,122 -76,122c-3,-1 -34,-21 -70,-46z"></path><path d="M1751,2473c-79,-52 -74,-42 -57,-130c3,-12 14,-55 24,-95c11,-40 23,-89 26,-108c4,-19 10,-41 15,-48c10,-16 180,-74 197,-68c7,3 15,38 19,83c4,43 15,136 26,207c10,71 19,137 19,146c0,13 -17,21 -62,33c-127,33 -126,33 -207,-20z"></path><path d="M2082,2471c-8,-5 -17,-45 -23,-102c-39,-375 -36,-357 -71,-416c-18,-30 -88,-128 -155,-218c-68,-90 -123,-166 -123,-169c0,-15 126,-86 197,-112c69,-25 91,-29 200,-29c67,0 124,3 127,6c4,3 -2,27 -13,52c-20,47 -19,57 8,57c34,0 140,-265 177,-440c18,-86 21,-92 83,-184l46,-68l3,-166c3,-145 6,-169 22,-190c15,-18 18,-35 14,-70c-2,-26 -7,-66 -9,-88l-4,-42l89,-22c58,-14 102,-20 125,-16c19,4 35,8 35,10c0,15 -59,104 -100,150c-40,46 -50,64 -48,89c1,18 -3,41 -9,52c-35,69 -59,297 -37,359c18,54 17,71 -7,136c-16,42 -22,86 -25,180c-3,69 -6,154 -7,190c-2,61 0,65 21,68c21,3 22,0 22,-67v-71h45c115,0 216,82 274,220c13,30 32,68 43,83c11,16 19,29 17,31c-2,2 -44,8 -94,15c-275,38 -631,185 -749,309c-26,28 -28,33 -17,64c6,18 14,117 18,220l6,188h-34c-19,0 -40,-4 -47,-9z"></path><path d="M1387,2227c-130,-90 -244,-170 -252,-178c-13,-13 -9,-21 33,-67c27,-29 53,-52 58,-52c6,0 59,31 120,70c60,38 113,70 117,70c13,0 -17,-37 -92,-115c-39,-40 -71,-77 -71,-83c0,-27 242,-125 260,-105c4,4 13,31 19,58c7,28 39,105 71,173l59,123l-19,67c-33,113 -61,202 -63,202c-1,-1 -109,-74 -240,-163z"></path><path d="M1734,2019c-19,-21 -19,-21 7,-42c15,-12 49,-41 77,-65l51,-43l37,56c20,30 35,57 33,59c-7,6 -163,56 -175,56c-6,0 -19,-9 -30,-21z"></path><path d="M1033,1983c-88,-61 -81,-50 -80,-148c1,-50 -4,-110 -12,-134c-17,-59 -89,-129 -173,-169c-76,-36 -72,-28 -83,-187c-11,-156 -51,-268 -124,-345c-40,-42 -54,-74 -66,-151c-5,-33 -9,-37 -59,-52c-83,-26 -94,-40 -107,-129c-10,-69 -9,-81 7,-115c11,-21 27,-40 37,-41c27,-5 103,77 161,173c26,44 65,98 86,120c34,36 39,50 54,135c44,246 60,288 130,339c29,22 64,52 77,68c25,29 57,50 194,123c180,96 415,233 415,241c0,5 -7,9 -16,9c-9,0 -59,21 -110,46c-96,47 -206,136 -255,208c-13,20 -27,36 -30,36c-3,0 -24,-12 -46,-27z"></path><path d="M1656,1859c-39,-117 -79,-256 -90,-320c-6,-32 -3,-39 21,-58l28,-20l-53,-1h-53l7,101l7,102l-44,-25c-24,-14 -77,-44 -117,-67l-72,-42l27,-22c16,-13 65,-47 111,-76c45,-29 82,-59 82,-66c0,-6 -9,-20 -20,-30c-30,-27 -25,-33 33,-40c93,-12 92,-14 -18,-125c-57,-58 -114,-106 -134,-113c-33,-12 -33,-12 -27,-63l6,-51l-41,-12c-59,-18 -85,-48 -94,-108c-7,-56 10,-111 47,-150c27,-29 34,-29 65,5c33,36 59,88 66,137c12,75 63,188 108,239c42,48 146,122 205,147c16,7 39,22 51,32c20,18 29,19 95,10c40,-6 75,-9 76,-7c2,1 -33,24 -78,50c-56,32 -84,55 -91,73c-35,97 -38,101 -92,101c-49,0 -49,0 -43,28c9,35 84,165 148,254c58,82 58,78 -25,172l-52,58z"></path><path d="M2997,1547c-31,-52 -75,-117 -97,-146c-35,-44 -38,-51 -21,-51c26,0 264,53 354,78l68,19l61,-37c34,-21 66,-44 71,-52c13,-20 -33,-113 -93,-192c-37,-48 -46,-66 -38,-79c5,-10 6,-22 3,-27c-10,-17 -61,-11 -88,10l-25,20l-26,-31c-42,-49 -56,-85 -62,-152c-8,-83 5,-102 60,-85c44,14 125,83 156,133c18,29 28,35 55,35c60,0 65,6 65,79c1,93 31,222 62,263c17,22 23,39 18,49c-4,7 -11,30 -15,49c-4,19 -26,61 -49,92l-41,57l-76,1c-46,0 -103,8 -140,19c-35,10 -76,22 -91,25c-14,3 -33,8 -41,11c-10,4 -31,-23 -70,-88z"></path></g></g></g></svg>