<svg version="1.1" xmlns="http://www.w3.org/2000/svg" xmlns:xlink="http://www.w3.org/1999/xlink" width="500.000000pt" height="500.000000pt" viewBox="0,0,256,256"><g fill="#ff0000" fill-rule="nonzero" stroke="none" stroke-width="1" stroke-linecap="butt" stroke-linejoin="miter" stroke-miterlimit="10" stroke-dasharray="" stroke-dashoffset="0" font-family="none" font-weight="none" font-size="none" text-anchor="none" style="mix-blend-mode: normal"><g transform="translate(-0.79888,-0.48853) scale(0.512,0.512)"><g transform="translate(0,500) scale(0.1,-0.1)"><path d="M40,4718c8,-9 133,-119 277,-245l262,-229l68,-13c37,-7 77,-14 88,-16c12,-3 135,-83 275,-179c140,-96 303,-207 363,-248c59,-40 199,-136 311,-213l205,-140l42,-80c23,-44 42,-82 41,-85c0,-3 2,-7 4,-9c2,-2 4,1 4,7c0,8 23,12 68,12h68l139,-96c77,-52 204,-139 282,-192c79,-53 143,-101 143,-107c0,-5 25,-35 56,-66c51,-52 59,-56 80,-47c21,10 34,4 109,-48c47,-32 120,-82 162,-111c43,-29 105,-72 138,-96c33,-24 80,-55 105,-70c25,-14 54,-34 65,-44c11,-10 119,-86 240,-168c121,-83 246,-168 278,-190c32,-22 80,-53 105,-70c47,-30 388,-262 472,-320c25,-17 101,-70 170,-117c69,-47 145,-99 170,-116l45,-31l22,27c13,15 23,30 23,33c0,4 -56,44 -125,90c-69,46 -124,88 -122,94c2,5 17,12 33,16c16,3 46,15 68,26l39,20l-77,6c-46,4 -92,15 -117,28c-23,11 -39,22 -37,24c2,2 44,10 94,18c100,16 180,51 232,101c38,35 72,95 72,125c0,11 4,23 10,26c6,3 10,13 10,22c0,9 -13,-1 -29,-24c-69,-95 -224,-138 -359,-98c-55,17 -112,58 -112,81c0,17 0,17 43,-1c50,-21 120,-20 139,3c30,34 29,41 -1,26c-26,-13 -34,-13 -64,0c-44,18 -78,68 -155,226c-39,82 -74,138 -99,162c-101,97 -216,115 -347,54c-76,-35 -95,-51 -78,-68c6,-6 21,-2 43,11c74,45 187,32 262,-30c68,-56 71,-69 75,-307c2,-116 0,-212 -4,-212c-4,0 -62,37 -130,83l-121,82l-6,56c-11,96 -43,164 -113,241c-35,38 -64,73 -64,78c0,19 -58,76 -113,111c-109,71 -251,99 -397,79c-41,-5 -85,-13 -97,-16c-46,-13 -22,16 37,46c68,34 135,91 143,119c2,11 -3,36 -13,58c-20,44 -97,143 -112,143c-5,0 -65,-41 -134,-92c-148,-110 -171,-125 -181,-114c-9,9 29,42 140,123c42,31 75,58 72,61c-2,2 -40,-1 -84,-8c-79,-12 -81,-13 -137,-72c-44,-46 -61,-58 -73,-51c-28,17 -23,32 18,53l41,20l-22,34l-23,34l-105,-5l-105,-5l-110,74c-150,101 -205,141 -201,146c2,2 22,-6 45,-17c48,-25 51,-25 51,-6c0,21 10,19 36,-6l23,-22l86,27c92,29 95,33 74,95c-15,43 -3,52 26,19c23,-26 23,-26 32,-5c8,17 17,21 49,19c38,-2 40,-1 109,93l70,95l6,-65c3,-36 8,-68 11,-71c4,-3 19,1 35,9c15,8 44,18 63,22c19,4 58,16 86,26l50,19l-9,73c-5,39 -19,90 -31,112c-25,47 -54,54 -123,31c-60,-20 -65,-14 -13,15c37,21 39,24 24,38c-14,15 -20,11 -60,-34c-25,-27 -86,-101 -136,-162c-85,-106 -113,-129 -101,-84c12,48 -46,80 -121,66c-25,-5 -39,-16 -55,-45c-11,-21 -21,-45 -21,-54c0,-23 -117,-81 -134,-66c-13,10 -274,32 -288,24c-15,-9 -98,52 -117,87c-20,35 -90,77 -110,65c-4,-3 -212,132 -462,300c-250,168 -521,351 -604,407c-128,86 -155,109 -186,156c-34,53 -44,61 -220,158c-101,56 -211,116 -244,134c-33,18 -96,52 -140,77c-104,58 -102,57 -85,40z"></path><path d="M1061,4139c79,-50 167,-106 194,-124c142,-91 182,-114 200,-110c11,2 76,13 145,25c69,12 190,32 270,46c290,50 366,63 415,69c28,4 54,9 58,12c5,3 -45,43 -110,89l-118,83l-599,1h-599z"></path><path d="M2745,4163c-33,-9 -61,-17 -63,-18c-3,-2 63,-162 72,-172c1,-1 24,4 51,12c115,35 226,12 280,-59c27,-36 65,-132 65,-165c0,-14 16,-28 53,-46c28,-15 60,-34 70,-42c9,-9 20,-13 25,-9c4,4 8,53 9,109c2,87 -1,110 -22,160c-34,83 -69,131 -128,171c-106,71 -271,95 -412,59z"></path><path d="M2848,3946c-102,-28 -138,-75 -138,-183c0,-81 14,-95 30,-30c6,23 13,48 15,55c5,14 82,17 103,3c8,-5 11,-17 7,-33c-5,-20 -1,-27 20,-36c38,-18 49,-15 73,18c27,36 52,39 52,7c0,-13 -13,-63 -29,-112c-17,-48 -24,-82 -17,-74c136,147 136,148 136,186c0,103 -45,175 -122,198c-60,18 -68,18 -130,1z"></path><path d="M2840,3691c0,-8 -73,-81 -110,-109l-24,-20l27,-35c27,-35 126,-92 138,-79c7,8 34,119 43,177c6,39 6,40 -34,57c-22,9 -40,13 -40,9z"></path><path d="M1576,3455c-24,-147 -22,-157 34,-171c25,-6 46,-10 48,-9c2,2 -6,39 -17,83c-12,44 -21,91 -22,104c0,12 -6,41 -13,63l-11,39z"></path><path d="M1490,3309c0,-49 4,-68 14,-72c11,-5 0,-33 -49,-123l-63,-117l19,-31c44,-72 6,-240 -81,-354c-22,-29 -40,-61 -40,-71c0,-10 16,-45 36,-77c19,-33 38,-71 41,-86c3,-16 9,-28 13,-28c9,0 40,34 40,44c0,24 35,76 50,76c24,0 50,-42 50,-80c0,-28 3,-31 28,-28c26,3 27,6 37,82l10,79l78,40c50,25 87,51 105,75c15,21 35,43 44,50c24,17 58,115 58,165c0,23 -7,53 -16,65c-27,39 8,59 40,23c44,-48 37,-176 -14,-253c-52,-80 -61,-232 -24,-430c12,-65 48,-168 58,-168c2,0 15,18 30,40c50,76 70,34 26,-54c-17,-33 -29,-61 -27,-62c3,-3 116,36 207,71c99,38 223,116 285,180c40,41 56,65 75,118c6,17 17,27 30,27c32,0 34,-24 6,-85c-78,-171 -283,-303 -569,-366c-47,-10 -59,-17 -63,-36c-7,-26 -1,-159 7,-167c7,-7 278,40 364,63c152,41 224,66 310,107c113,54 190,112 189,142c0,12 -1,112 -2,222l-2,200h-29c-15,0 -49,3 -75,6c-43,6 -49,11 -93,73c-165,233 -432,523 -558,606c-59,39 -131,76 -175,90c-20,6 -22,5 -15,-23c6,-29 5,-30 -35,-34c-23,-2 -43,-2 -46,1c-2,2 -4,26 -4,53c0,51 -24,113 -40,103c-5,-3 -17,-31 -26,-63c-10,-31 -21,-61 -24,-65c-4,-4 -36,2 -73,14c-59,19 -66,24 -71,53c-4,18 -13,41 -21,52c-13,17 -14,13 -15,-47zM2095,2841c125,-110 226,-282 253,-429c9,-52 9,-53 -20,-68c-17,-9 -31,-14 -32,-12c-1,2 -8,46 -14,98c-23,193 -89,313 -242,443c-29,25 -35,32 -15,21c17,-10 48,-34 70,-53z"></path><path d="M3183,3298l-92,-30l49,-57c28,-32 50,-65 50,-73c0,-10 -42,-39 -105,-74l-106,-59l3,-40c2,-30 7,-39 18,-37c17,5 170,31 217,38l32,5l-19,50c-30,74 -25,78 28,26l48,-48l47,27c26,14 47,28 47,30c0,15 -91,65 -136,74c-30,6 -54,16 -54,21c0,18 133,10 173,-10c43,-22 45,-15 17,46c-18,40 -105,144 -119,142c-3,0 -48,-14 -98,-31z"></path><path d="M2960,3280c-19,-20 -54,-51 -78,-71l-43,-35l57,-71l57,-70l98,56l97,56l-48,42c-26,24 -61,62 -76,85l-29,43z"></path><path d="M1996,3252c5,-5 43,-34 84,-64c203,-151 390,-348 527,-555l41,-62l27,40l26,41l-27,54c-66,130 -202,268 -384,389c-127,84 -342,198 -294,157z"></path><path d="M2900,2695c7,-9 15,-13 17,-11c7,7 -7,26 -19,26c-6,0 -6,-6 2,-15z"></path><path d="M2923,2622c-18,-26 -35,-59 -39,-74c-6,-27 -5,-28 37,-28c49,0 187,24 197,35c3,3 2,9 -4,13c-6,4 -42,28 -81,55c-39,26 -72,47 -74,47c-2,0 -18,-21 -36,-48z"></path><path d="M3125,2513c-101,-21 -145,-37 -145,-53c0,-9 9,-75 19,-146c11,-71 22,-164 26,-207c4,-45 12,-80 19,-83c17,-6 187,52 197,68c5,7 11,29 15,48c3,19 15,68 26,108c48,179 49,170 -31,225c-67,45 -81,50 -126,40z"></path><path d="M2844,2291c3,-104 11,-204 17,-221c10,-28 9,-34 -17,-62c-118,-124 -474,-271 -749,-309c-49,-7 -92,-13 -94,-15c-2,-2 6,-15 17,-31c11,-15 30,-53 43,-83c58,-138 159,-220 274,-220h45v71c0,67 1,70 23,67c20,-3 22,-7 20,-68c-2,-36 -4,-119 -6,-185c-2,-66 -9,-133 -16,-150c-29,-68 -34,-118 -18,-166c13,-37 14,-64 7,-146c-9,-102 -25,-183 -43,-218c-6,-11 -10,-34 -9,-51c2,-25 -9,-45 -51,-95c-46,-55 -97,-131 -97,-144c0,-2 16,-7 35,-11c23,-4 67,2 124,16l90,22l-5,51c-3,29 -7,71 -9,93c-3,32 0,46 15,59c17,15 19,35 22,185l3,168l46,68c62,91 64,96 84,189c40,178 143,435 176,435c27,0 28,-10 8,-57c-11,-25 -17,-49 -13,-52c3,-3 60,-6 127,-6c109,0 131,4 200,29c71,26 197,97 197,112c0,3 -55,79 -122,169c-68,90 -138,188 -156,218c-35,59 -32,41 -71,416c-6,57 -15,97 -23,102c-7,5 -28,9 -47,9h-34z"></path><path d="M3351,2323c-12,-38 -30,-98 -41,-135l-19,-67l59,-123c32,-68 64,-145 71,-173c6,-27 15,-54 19,-58c19,-22 260,76 260,105c0,4 -38,48 -86,99c-47,50 -83,93 -81,96c5,4 54,-25 184,-107c50,-31 54,-32 76,-17c14,9 39,34 56,56l32,40l-53,39c-29,21 -144,100 -255,175l-202,137z"></path><path d="M3145,2013c-44,-14 -82,-27 -84,-29c-2,-2 13,-29 33,-59l37,-56l51,43c28,24 62,53 77,65c26,21 26,21 7,42c-23,26 -23,26 -121,-6z"></path><path d="M3891,1974c-49,-72 -159,-161 -255,-208c-51,-25 -101,-46 -110,-46c-9,0 -16,-4 -16,-9c0,-9 193,-120 459,-265c70,-39 136,-83 154,-102c16,-20 50,-49 74,-66c64,-43 87,-103 129,-338c16,-87 20,-99 59,-140c23,-25 61,-78 84,-119c53,-89 131,-174 158,-169c10,1 26,20 37,41c16,34 17,46 7,115c-13,89 -24,103 -107,129c-50,15 -54,19 -59,52c-12,77 -26,109 -66,151c-73,77 -113,189 -124,345c-11,159 -7,151 -83,187c-84,40 -156,110 -173,169c-8,24 -13,84 -12,134c1,98 8,87 -80,148c-22,15 -43,27 -46,27c-3,0 -17,-16 -30,-36z"></path><path d="M3241,1899c-34,-40 -61,-76 -61,-81c0,-4 23,-40 50,-79c66,-92 150,-238 150,-261c0,-15 -9,-18 -48,-18c-52,0 -56,-4 -91,-101c-7,-18 -35,-41 -91,-73c-45,-26 -80,-49 -78,-50c1,-2 36,1 76,7c66,9 75,8 95,-10c12,-10 35,-25 51,-32c59,-25 163,-99 205,-147c45,-51 96,-164 108,-239c7,-49 33,-101 66,-137c31,-34 38,-34 65,-5c37,39 54,94 47,150c-9,60 -35,90 -94,108l-41,12l6,51c6,51 6,51 -27,63c-20,7 -77,55 -134,113c-110,111 -111,113 -18,125c58,7 63,13 33,40c-11,10 -20,24 -20,31c0,6 37,36 83,65c45,29 94,63 110,75l27,23l-72,42c-40,23 -93,53 -117,67l-44,25l7,-102l7,-101h-46c-49,0 -56,8 -24,28c23,15 22,23 -13,157c-18,71 -96,315 -103,323c-2,2 -30,-29 -64,-69z"></path><path d="M1900,1628c-19,-6 -64,-19 -99,-29c-37,-11 -95,-19 -140,-19l-76,-1l-41,-57c-23,-31 -45,-73 -49,-92c-4,-19 -11,-42 -15,-49c-5,-10 1,-27 18,-49c31,-41 61,-170 62,-263c0,-73 5,-79 65,-79c27,0 37,-6 55,-35c31,-50 112,-119 156,-133c55,-17 68,2 60,85c-6,67 -20,103 -62,152l-26,31l-25,-20c-27,-21 -78,-27 -88,-10c-3,5 -2,17 3,27c8,13 -1,31 -38,79c-60,79 -106,172 -93,192c5,8 36,31 70,52l62,37l88,-24c111,-30 308,-73 334,-73c17,0 13,8 -21,51c-22,29 -66,94 -97,145c-30,52 -58,94 -62,93c-3,-1 -22,-6 -41,-11z"></path></g></g></g></svg>