<svg version="1.1" xmlns="http://www.w3.org/2000/svg" xmlns:xlink="http://www.w3.org/1999/xlink" width="32.000000pt" height="32.000000pt" viewBox="0,0,256,256"><g fill="#ff0000" fill-rule="nonzero" stroke="none" stroke-width="1" stroke-linecap="butt" stroke-linejoin="miter" stroke-miterlimit="10" stroke-dasharray="" stroke-dashoffset="0" font-family="none" font-weight="none" font-size="none" text-anchor="none" style="mix-blend-mode: normal"><g transform="translate(0,0)"><g><g transform="translate(0.42926,-0.27651) scale(8,8)"><g transform="translate(0,32) scale(0.1,-0.1)"><path d="M115,301c-4,-12 -2,-27 3,-34c6,-7 13,-39 16,-72l6,-60l-16,40c-9,22 -19,58 -23,80c-4,27 -12,41 -23,43c-22,4 -25,-33 -5,-45c8,-4 21,-30 30,-58l17,-50l-25,30c-14,17 -25,38 -25,47c0,10 -9,22 -20,28c-18,9 -20,8 -20,-15c0,-14 6,-25 13,-25c7,0 28,-21 46,-47c44,-62 36,-91 -32,-112c-26,-8 -47,-20 -47,-28c0,-16 5,-16 70,-1c45,10 56,10 85,-6c30,-17 39,-17 80,-5c41,12 47,18 56,54c20,71 1,133 -44,148c-7,2 -7,17 0,45c11,41 10,42 -15,49c-19,4 -30,1 -44,-17c-20,-25 -24,-70 -6,-70c6,0 9,-3 5,-6c-3,-3 -2,-16 3,-29c8,-20 5,-24 -17,-30c-14,-3 -28,-4 -30,-1c-3,3 -6,37 -7,76c-2,73 -18,110 -31,71zM135,290c3,-5 1,-10 -4,-10c-6,0 -11,5 -11,10c0,6 2,10 4,10c3,0 8,-4 11,-10zM247,294c-3,-3 -12,-4 -19,-1c-8,3 -5,6 6,6c11,1 17,-2 13,-5zM90,269c0,-6 -4,-7 -10,-4c-5,3 -10,11 -10,16c0,6 5,7 10,4c6,-3 10,-11 10,-16zM244,272c9,-14 -9,-31 -23,-23c-7,5 -10,14 -7,20c8,13 23,14 30,3zM55,230c3,-5 1,-10 -4,-10c-6,0 -11,5 -11,10c0,6 2,10 4,10c3,0 8,-4 11,-10zM286,182c-7,-6 -56,18 -56,27c0,6 13,2 29,-7c16,-9 28,-18 27,-20zM230,172c0,-7 -4,-10 -10,-7c-5,3 -10,16 -10,28c0,18 2,19 10,7c5,-8 10,-21 10,-28zM268,153c-16,-2 -28,-8 -28,-12c0,-4 14,-6 30,-3c28,4 30,2 29,-24c-2,-67 -34,-116 -34,-53c0,23 -8,37 -28,53c-26,19 -30,19 -55,5c-15,-8 -31,-28 -36,-44c-13,-38 -13,-38 -25,-31c-9,6 15,75 31,91c7,8 88,23 118,22c23,0 23,0 -2,-4zM218,109c-2,-6 -8,-10 -13,-10c-5,0 -11,4 -13,10c-2,6 4,11 13,11c9,0 15,-5 13,-11zM187,84c-9,-9 -28,6 -21,18c4,6 10,6 17,-1c6,-6 8,-13 4,-17zM241,87c-13,-13 -26,-3 -16,12c3,6 11,8 17,5c6,-4 6,-10 -1,-17zM174,59c-8,-14 -24,-10 -24,6c0,9 6,12 15,9c8,-4 12,-10 9,-15zM257,53c-3,-3 -11,-2 -17,2c-9,6 -9,10 1,16c14,8 27,-7 16,-18zM75,35c-16,-8 -37,-14 -45,-14c-8,0 1,7 20,14c46,18 64,17 25,0zM190,42c0,-13 -12,-22 -22,-16c-10,6 -1,24 13,24c5,0 9,-4 9,-8zM241,37c-1,-12 -15,-9 -19,4c-3,6 1,10 8,8c6,-3 11,-8 11,-12zM220,19c0,-5 -7,-9 -15,-9c-15,0 -20,12 -9,23c8,8 24,-1 24,-14z"></path></g></g></g></g></g></svg>