<svg version="1.1" xmlns="http://www.w3.org/2000/svg" xmlns:xlink="http://www.w3.org/1999/xlink" width="32.000000pt" height="32.000000pt" viewBox="0,0,256,256"><g fill="#658521" fill-rule="nonzero" stroke="none" stroke-width="1" stroke-linecap="butt" stroke-linejoin="miter" stroke-miterlimit="10" stroke-dasharray="" stroke-dashoffset="0" font-family="none" font-weight="none" font-size="none" text-anchor="none" style="mix-blend-mode: normal"><g transform="translate(-0.42926,-0.39494) scale(8,8)"><g transform="translate(0,32) scale(0.1,-0.1)"><path d="M184,309c-4,-7 -9,-44 -10,-82c-1,-37 -4,-70 -7,-73c-2,-3 -16,-2 -30,1c-22,6 -25,10 -17,30c5,13 6,26 3,29c-4,3 -1,6 5,6c18,0 14,45 -6,70c-14,18 -25,21 -44,17c-25,-7 -26,-8 -15,-49c7,-28 7,-43 0,-45c-45,-15 -64,-77 -44,-148c9,-36 15,-42 56,-54c41,-12 50,-12 80,5c29,16 40,16 85,6c65,-15 70,-15 70,1c0,8 -21,20 -47,28c-68,21 -76,50 -32,112c18,26 39,47 46,47c7,0 13,11 13,25c0,23 -2,24 -20,15c-11,-6 -20,-18 -20,-28c0,-9 -11,-30 -25,-47l-25,-30l17,50c9,28 22,54 30,58c20,12 17,49 -4,45c-12,-2 -20,-16 -24,-43c-4,-22 -14,-58 -23,-80l-16,-40l6,59c3,33 11,67 16,76c7,11 8,23 1,35c-8,14 -12,15 -19,4zM97,294c-3,-3 -12,-4 -19,-1c-8,3 -5,6 6,6c11,1 17,-2 13,-5zM200,290c0,-5 -5,-10 -11,-10c-5,0 -7,5 -4,10c3,6 8,10 11,10c2,0 4,-4 4,-10zM242,268c-7,-7 -12,-8 -12,-2c0,6 3,14 7,17c3,4 9,5 12,2c2,-3 -1,-11 -7,-17zM106,269c3,-6 0,-15 -7,-20c-14,-8 -32,9 -23,23c7,11 22,10 30,-3zM280,230c0,-5 -5,-10 -11,-10c-5,0 -7,5 -4,10c3,6 8,10 11,10c2,0 4,-4 4,-10zM84,201c-5,-5 -20,-12 -34,-16c-23,-6 -22,-5 5,13c29,19 48,21 29,3zM101,167c-13,-13 -15,1 -4,30c7,17 8,17 11,-1c2,-10 -1,-23 -7,-29zM153,141c23,-9 60,-88 46,-97c-12,-7 -12,-7 -25,31c-5,16 -21,36 -36,44c-25,14 -29,14 -55,-5c-20,-16 -28,-30 -28,-53c0,-63 -32,-14 -34,53c-1,26 1,28 29,24c35,-5 41,9 8,15c-13,2 0,2 27,-1c28,-2 58,-8 68,-11zM128,109c-2,-6 -8,-10 -13,-10c-5,0 -11,4 -13,10c-2,6 4,11 13,11c9,0 15,-5 13,-11zM97,84c-9,-9 -28,6 -21,18c4,6 10,6 17,-1c6,-6 8,-13 4,-17zM151,87c-13,-13 -26,-3 -16,12c3,6 11,8 17,5c6,-4 6,-10 -1,-17zM84,59c-8,-14 -24,-10 -24,6c0,9 6,12 15,9c8,-4 12,-10 9,-15zM167,53c-3,-3 -11,-2 -17,2c-9,6 -9,10 1,16c14,8 27,-7 16,-18zM100,42c0,-13 -12,-22 -22,-16c-10,6 -1,24 13,24c5,0 9,-4 9,-8zM151,37c-1,-12 -15,-9 -19,4c-3,6 1,10 8,8c6,-3 11,-8 11,-12zM270,35c19,-7 28,-14 20,-14c-8,0 -28,6 -45,14c-39,17 -21,18 25,0zM130,19c0,-5 -7,-9 -15,-9c-15,0 -20,12 -9,23c8,8 24,-1 24,-14z"></path></g></g></g></svg>