<svg version="1.1" xmlns="http://www.w3.org/2000/svg" xmlns:xlink="http://www.w3.org/1999/xlink" width="32.000000pt" height="32.000000pt" viewBox="0,0,256,256"><g fill="#ffffff" fill-rule="nonzero" stroke="none" stroke-width="1" stroke-linecap="butt" stroke-linejoin="miter" stroke-miterlimit="10" stroke-dasharray="" stroke-dashoffset="0" font-family="none" font-weight="none" font-size="none" text-anchor="none" style="mix-blend-mode: normal"><g transform="translate(-0.20887,0.56783) scale(8,8)"><g transform="translate(0,32) scale(0.1,-0.1)"><path d="M92,304c-107,-55 -121,-198 -26,-271c96,-73 238,-10 251,111c14,119 -120,214 -225,160zM215,264c35,-16 65,-65 65,-104c0,-60 -60,-120 -120,-120c-60,0 -120,60 -120,120c0,38 30,88 63,104c41,20 71,20 112,0z"></path><path d="M91,229c-43,-43 -43,-95 0,-138c43,-43 95,-43 138,0c24,23 31,39 31,69c0,54 -46,100 -100,100c-30,0 -46,-7 -69,-31zM177,195c23,-14 43,-30 43,-35c0,-11 -81,-60 -98,-60c-8,0 -12,21 -12,60c0,69 4,71 67,35z"></path><path d="M130,160v-41l30,18c17,9 30,20 30,23c0,3 -13,14 -30,23l-30,18z"></path></g></g></g></svg>