<svg version="1.1" xmlns="http://www.w3.org/2000/svg" xmlns:xlink="http://www.w3.org/1999/xlink" width="32.000000pt" height="29.000000pt" viewBox="0,0,256,232"><g fill="#658521" fill-rule="nonzero" stroke="none" stroke-width="1" stroke-linecap="butt" stroke-linejoin="miter" stroke-miterlimit="10" stroke-dasharray="" stroke-dashoffset="0" font-family="none" font-weight="none" font-size="none" text-anchor="none" style="mix-blend-mode: normal"><g transform="translate(-2.22537,-0.00929) scale(8,8)"><g transform="translate(0,29) scale(0.1,-0.1)"><path d="M87,214c-87,-75 -88,-76 -70,-96c28,-32 145,-118 159,-118c26,0 14,17 -39,53c-30,21 -64,48 -76,61l-22,23l69,65c38,35 72,70 76,76c17,28 -14,7 -97,-64z"></path><path d="M219,220c-46,-39 -84,-77 -84,-85c0,-19 146,-134 170,-134c18,0 18,2 -6,22c-15,12 -52,42 -84,66l-57,44l79,72c43,40 75,76 72,79c-3,4 -44,-25 -90,-64z"></path></g></g></g></svg>