<?xml version="1.0" standalone="no"?>
<!DOCTYPE svg PUBLIC "-//W3C//DTD SVG 20010904//EN"
 "http://www.w3.org/TR/2001/REC-SVG-20010904/DTD/svg10.dtd">
<svg version="1.0" xmlns="http://www.w3.org/2000/svg"
 width="32.000000pt" height="29.000000pt" viewBox="0 0 32.000000 29.000000"
 preserveAspectRatio="xMidYMid meet">

<g transform="translate(0.000000,29.000000) scale(0.100000,-0.100000)"
fill="#000000" stroke="none">
<path d="M6 275 c3 -8 40 -40 81 -72 l75 -57 -28 -24 c-97 -81 -144 -138 -91
-111 37 19 147 120 147 134 0 7 -36 38 -79 69 -44 30 -82 60 -86 66 -10 15
-25 12 -19 -5z"/>
<path d="M130 281 c0 -5 34 -38 77 -72 l76 -63 -68 -61 c-94 -85 -81 -105 18
-26 42 34 80 67 83 73 8 12 -16 35 -112 108 -68 52 -74 55 -74 41z"/>
</g>
</svg>
