<svg version="1.1" xmlns="http://www.w3.org/2000/svg" xmlns:xlink="http://www.w3.org/1999/xlink" width="32.000000pt" height="29.000000pt" viewBox="0,0,256,232"><g fill="#658521" fill-rule="nonzero" stroke="none" stroke-width="1" stroke-linecap="butt" stroke-linejoin="miter" stroke-miterlimit="10" stroke-dasharray="" stroke-dashoffset="0" font-family="none" font-weight="none" font-size="none" text-anchor="none" style="mix-blend-mode: normal"><g transform="translate(-0.8224,1.5617) scale(8,8)"><g transform="translate(0,29) scale(0.1,-0.1)"><path d="M6,275c3,-8 40,-40 81,-72l75,-57l-28,-24c-97,-81 -144,-138 -91,-111c37,19 147,120 147,134c0,7 -36,38 -79,69c-44,30 -82,60 -86,66c-10,15 -25,12 -19,-5z"></path><path d="M130,281c0,-5 34,-38 77,-72l76,-63l-68,-61c-94,-85 -81,-105 18,-26c42,34 80,67 83,73c8,12 -16,35 -112,108c-68,52 -74,55 -74,41z"></path></g></g></g></svg>