<svg version="1.1" xmlns="http://www.w3.org/2000/svg" xmlns:xlink="http://www.w3.org/1999/xlink" width="800.000000pt" height="800.000000pt" viewBox="0,0,256,256"><g fill="#ff0000" fill-rule="nonzero" stroke="none" stroke-width="1" stroke-linecap="butt" stroke-linejoin="miter" stroke-miterlimit="10" stroke-dasharray="" stroke-dashoffset="0" font-family="none" font-weight="none" font-size="none" text-anchor="none" style="mix-blend-mode: normal"><g transform="translate(-0.132,-0.52258) scale(0.32,0.32)"><g transform="translate(0,800) scale(0.1,-0.1)"><path d="M5078,7254l-138,-656l96,-221c53,-122 98,-224 99,-225c2,-2 10,-2 19,0c12,2 -5,52 -77,233l-92,230l60,45c33,25 77,70 97,100c43,62 38,25 59,455c7,143 15,230 20,215c8,-28 29,-402 29,-526c0,-81 0,-82 44,-140c48,-65 72,-88 131,-128c55,-36 25,-33 -47,6c-32,17 -81,56 -109,85l-49,55v-317v-316l42,3l42,3l97,221l97,222l-69,328c-151,720 -200,950 -207,966c-4,11 -62,-247 -144,-638z"></path><path d="M3951,6950c-84,-12 -90,-20 -59,-68c39,-58 106,-195 144,-292c18,-49 35,-79 38,-70c48,136 109,267 171,367l25,42l-37,10c-55,16 -208,21 -282,11z"></path><path d="M4220,6783c-7,-16 -42,-90 -76,-167l-64,-138l1,-237l1,-236l19,60c10,33 24,112 29,175c14,153 34,267 75,429c19,74 33,136 32,138c-2,2 -10,-9 -17,-24z"></path><path d="M3885,6206c-188,-60 -281,-192 -288,-408c-2,-70 2,-82 25,-73c9,4 18,34 25,93c26,200 100,295 262,337c39,9 46,15 46,36c0,29 -16,32 -70,15z"></path><path d="M4167,6156c-23,-87 -21,-122 8,-171c32,-55 120,-116 178,-122c39,-5 46,-2 66,23c19,24 22,38 18,77c-2,26 -2,47 0,47c15,0 46,-106 53,-182c8,-85 17,-107 44,-108c15,0 -1,172 -23,241c-43,136 -141,220 -296,253c-30,7 -31,6 -48,-58z"></path><path d="M5130,6093c-21,-8 -30,-24 -30,-53c0,-43 16,-50 122,-50c86,0 98,2 108,19c32,61 -4,91 -110,90c-41,0 -82,-3 -90,-6z"></path><path d="M4039,5923c-67,-92 -246,-200 -404,-245c-44,-12 -81,-23 -83,-24c-1,-1 2,-61 8,-133c12,-146 3,-270 -30,-430l-19,-94l44,-86c50,-96 98,-159 170,-221c51,-44 195,-144 200,-138c1,1 -1,30 -6,63c-7,45 -27,522 -29,686c0,12 -8,14 -30,11c-75,-11 -143,26 -180,99c-11,21 -20,41 -20,44c0,3 35,5 78,5c135,0 212,-37 242,-115c8,-21 11,-109 9,-280c-3,-195 0,-256 10,-275c19,-36 61,-90 69,-90c4,0 23,23 42,51l35,52v261c0,245 1,263 21,301c34,65 88,89 213,93l104,4l-29,-53c-38,-70 -88,-101 -160,-97l-51,3l-7,-290c-3,-159 -11,-330 -16,-379c-6,-49 -9,-90 -7,-92c2,-2 41,22 88,53c107,73 204,171 249,250c19,34 38,63 43,63c4,0 7,-18 7,-39c0,-35 37,-251 44,-259c2,-1 17,3 35,9c22,8 30,16 27,28c-25,91 -38,302 -23,394l8,48l-43,-3l-43,-3l-13,60c-13,60 -21,327 -13,439l5,59l-100,32c-153,48 -256,106 -345,195l-76,76zM4069,5338c0,-531 0,-533 -20,-508c-18,23 -19,44 -22,280c-2,280 -7,308 -63,347c-51,36 -104,47 -224,47l-115,1l3,-50c8,-108 55,-163 160,-185l51,-11l5,-62c3,-34 8,-159 11,-277c3,-118 8,-228 12,-245l6,-29l-44,34c-83,66 -174,168 -222,247l-48,80l12,69c6,38 15,174 18,303l6,233l105,37c136,48 209,88 295,161c39,33 71,60 73,60c1,0 2,-240 1,-532z"></path><path d="M5170,5170v-770h50h50v770v770h-50h-50z"></path><path d="M4967,5138c-36,-62 -81,-197 -110,-329c-39,-173 -39,-167 9,-188l41,-19l13,42c21,70 108,257 150,322c40,60 41,64 38,135l-3,74l-56,3l-57,3z"></path><path d="M4747,5129c-17,-64 -29,-255 -22,-362l7,-117h28h28l12,103c15,127 42,248 74,326l25,61h-28c-16,0 -48,3 -73,6c-41,6 -46,4 -51,-17z"></path><path d="M3358,5023c-42,-15 -47,-20 -59,-60c-9,-34 -9,-49 0,-66c28,-53 119,-161 241,-287l130,-135l-47,80c-68,115 -139,279 -167,387c-15,57 -29,94 -37,95c-8,1 -35,-6 -61,-14z"></path><path d="M5092,4928c-22,-29 -48,-90 -93,-226l-48,-143l25,-46c17,-33 24,-62 24,-103v-58l35,-6c30,-6 39,-3 55,16c18,21 19,42 20,301c0,152 -2,277 -4,277c-2,0 -8,-6 -14,-12z"></path><path d="M5330,4651v-260l58,-7c87,-10 97,-17 136,-91c20,-37 44,-78 54,-89l17,-22l285,30l285,30l50,-25c77,-38 131,-91 166,-162c28,-58 32,-76 37,-179c3,-71 0,-139 -7,-177c-7,-33 -10,-63 -8,-66c9,-9 85,68 117,117l32,50l-22,72c-62,206 -149,307 -340,397c-48,23 -56,30 -39,34c11,3 41,0 65,-8c24,-7 44,-9 44,-5c0,20 -177,197 -214,214c-23,10 -99,33 -171,51c-123,31 -130,31 -133,14c-5,-30 -15,-22 -52,44c-66,117 -230,259 -337,292l-23,6z"></path><path d="M3041,4870c-30,-4 -40,-14 -72,-70l-38,-64l78,-37c43,-20 120,-63 172,-96c277,-176 398,-252 434,-273c34,-21 24,-6 -73,108c-62,73 -162,198 -223,277c-69,91 -118,147 -132,149c-42,9 -112,12 -146,6z"></path><path d="M2813,4669c-29,-10 -79,-32 -112,-49c-63,-34 -75,-51 -86,-127l-7,-43h116c334,0 525,-63 891,-295c25,-15 22,-10 -15,29c-127,134 -379,311 -660,463l-75,40z"></path><path d="M4672,4569c-90,-45 -127,-159 -80,-249c32,-62 91,-102 154,-103c75,-2 102,8 106,40c2,20 14,34 43,50c21,12 43,30 46,40c14,35 9,97 -12,141c-45,93 -160,129 -257,81zM4804,4506c72,-30 90,-119 37,-178c-26,-29 -35,-33 -81,-33c-46,0 -55,4 -81,33c-50,56 -32,149 34,177c41,18 50,18 91,1z"></path><path d="M4725,4468c-29,-16 -35,-28 -35,-70c0,-27 6,-41 22,-52c63,-44 144,11 117,81c-18,48 -61,65 -104,41z"></path><path d="M4355,4300c-39,-46 -71,-74 -93,-81c-21,-7 -84,-10 -163,-7l-128,4l57,-24c62,-26 218,-62 268,-62c26,0 41,12 93,69c33,38 61,78 61,88c-1,10 -9,33 -18,51l-18,32z"></path><path d="M5111,4312c-13,-25 -21,-60 -21,-90v-49l98,-6c53,-3 108,-10 122,-15c27,-10 12,-13 -155,-27c-38,-3 -74,-10 -78,-14c-12,-12 -20,-77 -13,-105c5,-21 14,-26 78,-36c182,-29 200,-49 39,-42l-118,5l-6,-32c-10,-48 2,-90 27,-96c11,-3 57,-14 101,-25l80,-19l-107,2l-108,3v-47c0,-45 2,-47 38,-62c21,-8 67,-20 102,-27c36,-6 73,-13 83,-15c10,-2 31,8 47,22c25,21 30,32 30,72c0,53 18,84 61,106c21,11 29,23 29,43l1,27l14,-25c8,-14 12,-34 8,-44c-4,-16 -1,-18 18,-13c13,4 48,12 77,18c28,7 52,16 52,20c0,4 -24,16 -52,26l-53,18l73,3l72,3v70c0,68 -2,73 -43,127c-24,31 -53,74 -66,94l-22,38l-26,-28c-20,-22 -23,-23 -18,-7c13,41 17,75 11,99c-11,44 -53,57 -211,63l-143,6zM5499,4063c11,-40 0,-62 -44,-85c-19,-11 -19,-10 -2,15c9,14 19,44 23,66c4,23 8,41 10,41c2,0 8,-17 13,-37z"></path><path d="M4971,4292c-63,-24 -67,-35 -51,-135c7,-47 10,-113 7,-147l-5,-62l26,7c45,11 61,32 55,71c-3,21 1,59 12,93c16,53 16,60 1,96c-16,38 -16,38 4,20c11,-10 20,-14 20,-9c0,5 4,26 9,47c8,34 7,37 -13,36c-11,0 -41,-8 -65,-17z"></path><path d="M4496,4210c-9,-17 -42,-56 -72,-87l-55,-56l-147,6c-97,4 -185,14 -259,30c-62,13 -113,23 -113,21c0,-2 22,-15 49,-29c76,-38 183,-64 342,-81l146,-17l44,31c24,17 69,55 99,86l54,56l-35,35l-35,35z"></path><path d="M5835,4169c-88,-5 -175,-11 -193,-14l-32,-6l41,-49c36,-42 42,-58 51,-122l10,-74l146,-27c90,-17 176,-41 228,-62c128,-53 176,-47 216,28l23,42l3,-36c6,-77 -48,-240 -94,-280c-11,-9 -37,-26 -59,-37l-41,-20l-239,93c-147,57 -244,90 -250,84c-6,-6 -6,-12 0,-18c19,-17 473,-201 496,-201c40,1 102,35 138,75c65,75 96,190 89,332c-6,136 -62,239 -151,282c-48,23 -95,25 -382,10z"></path><path d="M4769,4131l-75,-6l-78,-88c-43,-48 -105,-107 -138,-132c-55,-41 -65,-45 -118,-45c-61,0 -249,17 -287,25c-23,5 -23,4 -23,-90v-96l38,-16c69,-29 223,-63 334,-73c132,-13 343,2 392,27c17,9 63,49 102,90c69,71 72,77 77,131c2,31 4,58 3,59c-1,1 -18,-3 -38,-9c-20,-6 -48,-8 -62,-4c-25,6 -26,9 -20,56c9,65 -4,181 -19,178c-7,-1 -46,-4 -88,-7z"></path><path d="M3580,4071c0,-7 38,-49 84,-95c70,-70 92,-100 135,-185c28,-57 51,-109 51,-117c0,-19 7,-18 57,11l43,26v97v97l-89,28c-76,24 -185,80 -258,133c-15,11 -23,12 -23,5z"></path><path d="M2606,3839c-298,-41 -570,-180 -781,-400c-185,-193 -301,-417 -350,-679c-25,-129 -25,-351 0,-480c102,-542 503,-950 1048,-1067c116,-25 409,-25 525,0c271,60 484,176 677,371c264,266 385,561 385,938c0,354 -120,658 -362,914c-183,193 -405,319 -668,380c-120,28 -356,40 -474,23zM3035,3766c242,-53 443,-159 618,-325c235,-224 368,-497 396,-814c35,-402 -123,-794 -427,-1061c-625,-548 -1598,-359 -1971,382c-48,96 -92,223 -117,337c-25,121 -23,351 5,482c112,532 519,920 1056,1009c100,17 343,11 440,-10z"></path><path d="M2589,3545c-551,-104 -924,-637 -834,-1190c33,-205 125,-396 264,-548c119,-129 321,-250 501,-299c75,-20 106,-23 270,-22c171,0 192,2 275,28c291,87 512,268 645,527c148,288 156,627 20,916c-132,282 -373,485 -675,570c-115,32 -346,41 -466,18zM2960,3499c123,-22 266,-79 367,-146c78,-51 215,-184 269,-259c62,-87 129,-234 156,-340c30,-119 32,-331 4,-449c-68,-296 -262,-542 -531,-676c-146,-72 -267,-101 -430,-102c-71,-1 -157,5 -190,12c-394,83 -685,356 -787,739c-29,111 -35,301 -13,417c59,314 256,575 540,715c197,97 402,127 615,89z"></path><path d="M5395,3595l-70,-21l2,-116c4,-208 54,-478 124,-664l23,-59l27,60l28,60l1,-46c0,-61 -25,-191 -57,-293c-86,-278 -343,-666 -629,-948c-173,-172 -306,-272 -478,-364c-214,-113 -330,-137 -1005,-199c-575,-54 -728,-86 -1004,-210c-133,-60 -314,-163 -410,-233l-65,-47l197,-1c302,-1 385,-30 622,-216c257,-201 298,-220 480,-222l116,-1l104,106c235,241 477,392 859,539c266,102 410,182 590,327c262,211 498,570 625,947c65,197 133,473 181,743l25,145l-41,86c-75,154 -158,439 -161,559c-1,21 -4,50 -8,64l-6,26z"></path><path d="M5170,2855c0,-393 2,-715 5,-715c2,0 25,30 50,67l45,68v641v641l-37,7c-21,3 -44,6 -50,6c-10,0 -13,-150 -13,-715z"></path><path d="M4040,3341c1,-148 8,-161 76,-137c26,9 71,16 99,16c49,0 52,-2 120,-70c38,-38 78,-70 88,-70c48,0 96,43 151,135c33,55 36,57 36,31c0,-98 -63,-207 -144,-248c-66,-34 -225,-35 -311,-1c-10,3 -9,-10 5,-58c11,-35 22,-82 26,-105c5,-35 11,-45 35,-55c17,-6 52,-36 78,-66l49,-55l44,19c54,24 100,76 123,139c38,102 50,63 15,-47c-22,-71 -74,-143 -141,-196c-43,-34 -46,-35 -109,-29l-65,7v-72v-71l70,7c233,23 511,193 586,360c18,40 18,42 -5,104l-23,64l-32,-60c-32,-60 -104,-142 -86,-98c61,147 69,188 69,330c0,120 -3,149 -22,199c-12,33 -29,70 -37,82l-14,22l-68,-21c-55,-16 -97,-20 -218,-21c-159,-1 -214,8 -336,58l-59,24z"></path><path d="M4910,2702c-42,-65 -137,-154 -213,-200c-118,-71 -373,-162 -453,-162h-24v-131v-131l41,7c43,7 205,60 274,90c176,75 338,177 411,258l45,51l-6,65c-8,84 -25,183 -33,197c-4,6 -22,-12 -42,-44z"></path><path d="M5721,2591c-63,-282 -223,-847 -306,-1077c-47,-131 -159,-372 -190,-409l-17,-20l8,20c16,46 41,143 48,185l7,45l-56,-89c-66,-106 -165,-225 -237,-287c-123,-104 -226,-166 -593,-357c-305,-157 -375,-202 -470,-296l-70,-69l40,-13c86,-27 109,-21 322,85c529,263 906,483 1138,666c84,66 90,76 206,349c146,342 227,633 292,1049l14,87l-56,117l-57,117z"></path><path d="M4890,2166c-273,-97 -504,-313 -676,-631c-58,-107 -157,-349 -144,-353c15,-6 163,49 250,93c47,24 128,71 179,105c170,114 428,385 547,576l45,72l-21,53c-46,116 -67,126 -180,85z"></path><path d="M5876,2070c-3,-8 -19,-71 -36,-140c-88,-353 -224,-779 -326,-1022c-57,-135 -233,-492 -240,-485c-2,2 5,44 15,93c22,98 43,245 37,251c-2,2 -32,-36 -67,-84c-94,-130 -206,-268 -287,-354c-40,-42 -72,-79 -72,-82c0,-2 24,-15 53,-28c43,-19 69,-23 152,-23c144,0 160,8 237,112c229,307 350,575 511,1142c103,359 104,365 82,457c-25,108 -52,181 -59,163z"></path></g></g></g></svg>