<svg version="1.1" xmlns="http://www.w3.org/2000/svg" xmlns:xlink="http://www.w3.org/1999/xlink" width="800.000000pt" height="800.000000pt" viewBox="0,0,256,256"><g fill="#ff0000" fill-rule="nonzero" stroke="none" stroke-width="1" stroke-linecap="butt" stroke-linejoin="miter" stroke-miterlimit="10" stroke-dasharray="" stroke-dashoffset="0" font-family="none" font-weight="none" font-size="none" text-anchor="none" style="mix-blend-mode: normal"><g transform="translate(0.13332,-0.42932) scale(0.32,0.32)"><g transform="translate(0,800) scale(0.1,-0.1)"><path d="M2777,7890c-4,-8 -67,-302 -141,-653l-134,-639l97,-221l97,-222l42,-3l42,-3v316v317l-49,-55c-28,-29 -77,-68 -109,-85c-72,-39 -102,-42 -47,-6c59,40 83,63 131,128c44,58 44,59 44,140c0,124 21,498 29,526c5,15 13,-72 20,-215c21,-430 16,-393 59,-455c20,-30 64,-75 97,-100l60,-45l-92,-230c-72,-181 -89,-231 -77,-233c9,-2 17,-2 19,0c1,1 46,103 99,225l96,222l-135,643c-75,354 -137,648 -139,653c-2,6 -6,3 -9,-5z"></path><path d="M3825,6950c-28,-4 -61,-10 -73,-14l-22,-7l25,-42c62,-100 123,-231 171,-367c3,-9 20,21 38,70c38,97 105,234 144,292c16,25 22,42 16,48c-23,23 -201,35 -299,20z"></path><path d="M3765,6790c3,-14 18,-77 34,-140c37,-145 58,-264 71,-410c5,-63 19,-142 29,-175l19,-60l1,236l1,237l-63,138c-35,77 -71,153 -81,169c-16,27 -17,28 -11,5z"></path><path d="M3734,6199c-125,-39 -208,-120 -245,-237c-22,-70 -38,-242 -23,-242c27,1 36,23 44,108c7,76 38,182 53,182c2,0 2,-21 0,-47c-4,-39 -1,-53 18,-77c20,-25 27,-28 66,-23c92,10 203,118 203,196c0,46 -32,161 -45,160c-5,0 -38,-9 -71,-20z"></path><path d="M4044,6206c-10,-27 3,-43 43,-51c61,-11 142,-56 179,-99c44,-52 73,-131 87,-238c7,-59 16,-89 25,-93c23,-9 27,3 25,73c-4,128 -44,240 -110,307c-39,39 -152,98 -211,110c-24,5 -33,3 -38,-9z"></path><path d="M2683,6085c-25,-17 -29,-45 -13,-76c10,-17 22,-19 108,-19c106,0 122,7 122,50c0,48 -13,55 -107,58c-69,3 -93,0 -110,-13z"></path><path d="M3860,5880c-88,-89 -190,-146 -344,-195l-100,-32l5,-59c8,-112 0,-379 -13,-439l-13,-60l-43,3l-43,3l8,-48c11,-68 6,-233 -10,-330l-13,-82l29,-11c17,-5 31,-9 33,-8c7,8 44,224 44,259c0,21 3,39 8,39c4,0 23,-29 42,-63c45,-79 142,-177 249,-250c47,-31 86,-55 88,-53c2,2 -1,43 -7,92c-5,49 -13,220 -16,379l-7,290l-51,-3c-72,-4 -122,27 -160,97l-29,53l104,-4c125,-4 179,-28 213,-93c20,-38 21,-56 21,-301v-261l35,-52c19,-28 38,-51 41,-51c8,0 51,55 70,90c10,20 13,77 10,275c-2,171 1,259 9,280c30,78 107,115 242,115c43,0 78,-2 78,-5c0,-3 -9,-23 -20,-44c-37,-73 -105,-110 -180,-99c-22,3 -30,1 -30,-11c-2,-164 -22,-641 -29,-686c-5,-33 -7,-62 -6,-63c5,-6 149,94 200,138c72,62 120,125 170,221l44,86l-19,94c-33,160 -42,284 -30,430c6,72 9,132 8,133c-2,1 -39,12 -83,24c-158,45 -321,143 -399,239l-31,38zM4040,5782c68,-55 129,-86 260,-133l105,-37l6,-233c3,-129 12,-265 18,-303l12,-69l-48,-80c-48,-79 -139,-181 -222,-247l-44,-34l6,29c4,17 9,127 12,245c3,118 8,243 11,277l5,62l51,11c105,22 152,77 160,185l3,50l-115,-1c-120,0 -173,-11 -224,-47c-56,-39 -61,-67 -63,-347c-3,-236 -4,-257 -22,-280c-20,-25 -20,-23 -20,508l-1,533l28,-23c16,-13 53,-42 82,-66z"></path><path d="M2730,5170v-770h50h50v770v770h-50h-50z"></path><path d="M2897,5173c-4,-3 -7,-38 -7,-76c0,-65 3,-75 40,-132c42,-65 129,-251 150,-321l13,-42l41,19c48,21 48,15 9,188c-29,132 -74,267 -110,329c-24,41 -26,42 -77,42c-29,0 -56,-3 -59,-7z"></path><path d="M3148,5143l-46,-4l24,-60c32,-79 59,-199 74,-326l12,-103h28h28l7,117c7,106 -4,298 -21,361c-7,23 -4,23 -106,15z"></path><path d="M4566,5028c-2,-7 -12,-44 -21,-83c-24,-97 -95,-264 -160,-376l-55,-94l130,135c122,126 213,234 241,287c9,17 9,32 0,66c-12,41 -16,45 -65,60c-63,20 -66,20 -70,5z"></path><path d="M2890,4663c1,-259 2,-280 20,-301c16,-19 25,-22 55,-16l35,6v58c0,41 7,70 24,103l25,46l-48,143c-48,143 -82,221 -101,233c-7,4 -10,-86 -10,-272z"></path><path d="M2579,4873c-90,-44 -217,-167 -269,-260c-37,-66 -47,-74 -52,-44c-3,17 -10,17 -133,-14c-71,-18 -148,-41 -171,-51c-37,-17 -214,-194 -214,-214c0,-4 20,-2 44,5c24,8 54,11 65,8c17,-4 9,-11 -39,-34c-191,-90 -278,-191 -340,-397l-22,-72l32,-50c32,-49 108,-126 117,-117c2,3 -1,33 -8,66c-7,38 -10,106 -7,177c5,103 9,121 37,179c35,71 89,124 166,162l50,25l285,-30l285,-30l17,22c10,11 34,52 54,89c39,74 49,81 137,91l57,7v260c0,142 -4,259 -9,259c-4,0 -42,-16 -82,-37z"></path><path d="M4875,4873c-77,-6 -81,-10 -194,-158c-61,-79 -161,-204 -223,-277c-128,-150 -139,-152 132,21c255,162 364,227 424,252l55,22l-31,56c-17,31 -36,61 -42,67c-13,14 -66,21 -121,17z"></path><path d="M4999,4613c-248,-139 -481,-305 -594,-424c-38,-40 -43,-48 -20,-34c366,232 557,295 891,295h116l-7,43c-11,76 -23,93 -86,126c-32,18 -83,40 -112,50l-54,19z"></path><path d="M3138,4561c-53,-34 -88,-97 -87,-157c1,-56 10,-72 54,-97c29,-16 41,-30 43,-50c4,-32 31,-42 106,-40c63,1 122,41 154,103c47,90 9,206 -80,249c-65,31 -133,28 -190,-8zM3285,4506c68,-29 87,-122 36,-178c-26,-29 -35,-33 -81,-33c-46,0 -55,4 -81,33c-52,58 -35,147 35,178c40,17 49,17 91,0z"></path><path d="M3198,4466c-42,-32 -42,-103 1,-125c54,-29 111,0 111,57c0,43 -7,55 -37,71c-28,14 -54,14 -75,-3z"></path><path d="M3567,4335c-9,-20 -17,-43 -17,-51c0,-9 28,-47 61,-85c52,-57 67,-69 93,-69c50,0 206,36 268,62l57,24l-128,-4c-79,-3 -142,0 -163,7c-22,7 -54,35 -93,81c-33,39 -60,70 -60,70c-1,0 -9,-16 -18,-35z"></path><path d="M2615,4341c-102,-13 -124,-52 -90,-156c5,-16 2,-15 -18,7l-26,28l-22,-38c-13,-20 -42,-63 -66,-94c-41,-54 -43,-59 -43,-127v-70l73,-3l72,-3l-52,-18c-29,-10 -53,-22 -53,-26c0,-4 24,-13 53,-20c28,-6 63,-14 76,-18c19,-5 22,-3 18,13c-4,10 0,30 8,44l14,25l1,-27c0,-20 8,-32 29,-43c43,-22 61,-53 61,-106c0,-40 5,-51 30,-72c16,-14 37,-24 47,-22c10,2 47,9 83,15c35,7 81,19 102,27c36,15 38,17 38,62v47l-107,-3l-108,-2l80,19c44,11 90,22 101,25c25,6 37,48 27,96l-6,32l-118,-5c-161,-7 -143,13 39,42c64,10 73,15 78,36c7,28 -1,93 -13,105c-4,4 -39,11 -78,14c-167,14 -182,17 -155,27c14,5 69,12 122,15l98,6v46c0,25 -9,65 -20,89l-19,42l-103,-1c-57,-1 -125,-5 -153,-8zM2546,3997c16,-28 15,-28 -2,-19c-44,23 -54,45 -42,88l11,39l9,-40c4,-22 15,-53 24,-68z"></path><path d="M2951,4274c4,-22 9,-43 9,-48c0,-5 9,-1 20,9c24,22 25,18 4,-25c-15,-30 -15,-36 1,-90c11,-35 15,-73 12,-94c-6,-38 10,-60 53,-71l25,-6l3,108c1,59 3,131 5,158c2,49 1,51 -35,68c-20,10 -52,21 -72,24l-34,5z"></path><path d="M3449,4204l-33,-34l54,-56c30,-31 75,-69 99,-86l44,-31l146,17c159,17 266,43 342,81c27,14 49,27 49,29c0,2 -51,-8 -112,-21c-73,-15 -164,-26 -255,-30c-142,-6 -143,-6 -177,20c-18,15 -54,53 -79,86l-44,60z"></path><path d="M1783,4159c-90,-44 -145,-146 -151,-282c-7,-142 24,-257 89,-332c36,-40 98,-74 138,-75c23,0 477,184 496,201c6,6 6,12 0,18c-6,6 -103,-27 -250,-84l-239,-93l-41,20c-22,11 -48,28 -59,37c-46,40 -100,203 -94,280l3,36l23,-42c40,-75 88,-81 216,-28c52,21 138,45 228,62l146,27l10,74c9,64 15,80 51,122l41,49l-32,6c-38,6 -396,25 -478,25c-36,0 -70,-7 -97,-21z"></path><path d="M3125,4075c-4,-36 -5,-88 -1,-115c6,-47 5,-50 -20,-56c-14,-4 -42,-2 -62,4c-20,6 -37,10 -38,9c-1,-1 1,-28 3,-59c5,-54 8,-60 77,-131c39,-41 85,-81 102,-90c49,-25 260,-40 392,-27c111,10 265,44 335,73l37,16v96c0,94 0,95 -22,90c-39,-8 -227,-25 -288,-25c-53,0 -63,4 -119,46c-33,25 -95,85 -138,134l-78,89l-65,1c-36,0 -75,3 -87,6c-20,5 -22,1 -28,-61z"></path><path d="M4340,4029c-71,-47 -189,-99 -257,-114l-33,-7v-98v-99l43,-26c50,-29 57,-30 57,-11c0,8 23,60 51,117c43,86 65,115 136,186c46,46 83,87 81,92c-2,5 -37,-13 -78,-40z"></path><path d="M5040,3840c-380,-53 -718,-265 -929,-580c-153,-228 -221,-457 -221,-738c0,-377 121,-672 385,-938c193,-195 406,-311 677,-371c116,-25 409,-25 525,0c545,117 945,525 1048,1067c26,138 25,362 -4,497c-56,266 -163,471 -346,662c-191,199 -428,330 -700,386c-94,20 -341,28 -435,15zM5400,3775c278,-42 511,-159 710,-357c180,-177 297,-395 351,-651c28,-131 30,-361 5,-482c-100,-467 -411,-824 -846,-969c-431,-144 -898,-50 -1240,248c-470,411 -571,1099 -239,1632c65,104 213,263 318,342c168,127 397,218 616,245c75,10 238,6 325,-8z"></path><path d="M5049,3551c-221,-41 -418,-142 -566,-290c-325,-325 -402,-813 -193,-1220c133,-259 354,-440 645,-527c83,-26 104,-28 275,-28c217,-1 288,13 455,93c531,253 746,890 479,1416c-134,263 -379,459 -672,537c-86,22 -340,34 -423,19zM5415,3494c331,-63 623,-317 739,-641c82,-230 73,-493 -24,-726c-105,-253 -343,-470 -610,-555c-114,-36 -182,-46 -315,-45c-163,1 -284,30 -430,102c-269,134 -463,380 -531,676c-28,118 -26,330 4,449c27,106 94,253 156,340c54,76 192,208 271,261c211,139 476,189 740,139z"></path><path d="M2525,3561c-19,-191 -85,-430 -165,-593l-41,-86l25,-145c48,-270 116,-546 181,-743c127,-377 363,-736 625,-947c180,-145 324,-225 590,-327c382,-147 624,-298 859,-539l104,-106l116,1c182,2 223,21 480,222c237,186 320,215 622,216l197,1l-65,47c-96,70 -277,173 -410,233c-276,124 -429,156 -1004,210c-675,62 -791,86 -1005,199c-172,92 -305,192 -478,364c-388,384 -660,863 -681,1202l-6,85l29,-60l28,-60l23,59c70,186 120,456 124,664l2,116l-72,22l-72,22z"></path><path d="M2758,3563l-28,-4v-642v-642l45,-68c25,-37 48,-67 50,-67c3,0 5,322 5,715v715l-22,-1c-13,-1 -35,-4 -50,-6z"></path><path d="M3898,3434c-117,-49 -173,-59 -333,-58c-121,1 -163,5 -218,21l-68,21l-14,-22c-8,-12 -25,-49 -37,-82c-19,-50 -22,-79 -22,-199c0,-142 8,-183 69,-330c18,-44 -54,38 -86,98l-32,60l-23,-64c-23,-62 -23,-64 -5,-104c75,-167 353,-337 586,-360l70,-7v71v72l-65,-7c-63,-6 -66,-5 -109,29c-67,53 -119,125 -141,196c-35,110 -23,149 15,47c23,-63 69,-115 123,-139l44,-19l49,55c26,30 61,60 78,66c24,10 30,20 35,55c4,23 15,70 26,105c14,48 15,61 5,58c-86,-34 -245,-33 -311,1c-81,41 -144,150 -144,248c0,26 3,24 36,-31c55,-92 103,-135 151,-135c10,0 50,32 88,70c68,68 71,70 120,70c28,0 73,-7 99,-16c68,-24 75,-11 76,139c0,64 -1,116 -2,116c-2,-1 -29,-12 -60,-25z"></path><path d="M3041,2723c-6,-21 -15,-82 -21,-136c-10,-91 -10,-99 9,-126c61,-86 237,-201 436,-286c69,-30 231,-83 274,-90l41,-7v131v131h-24c-44,0 -214,49 -306,89c-171,74 -283,159 -359,272l-40,60z"></path><path d="M2198,2575l-55,-115l14,-88c65,-415 146,-706 292,-1048c116,-273 122,-283 206,-349c232,-183 609,-403 1138,-666c213,-106 236,-112 322,-85l40,13l-70,69c-95,94 -165,139 -470,296c-367,191 -470,253 -593,357c-72,62 -171,181 -237,287l-56,89l7,-45c7,-42 32,-139 48,-185c16,-44 -24,19 -73,115c-119,232 -240,606 -391,1202l-67,268z"></path><path d="M2971,2162c-11,-16 -29,-52 -41,-81l-21,-53l45,-72c119,-191 377,-462 547,-576c51,-34 132,-81 179,-105c87,-44 235,-99 250,-93c13,4 -86,246 -144,353c-173,320 -413,543 -684,634c-83,28 -106,27 -131,-7z"></path><path d="M2092,2008c-47,-158 -48,-173 -18,-294c37,-150 156,-554 206,-699c78,-226 226,-504 378,-707c77,-104 93,-112 237,-112c83,0 109,4 153,23c28,13 52,26 52,28c0,3 -32,40 -72,82c-81,86 -193,224 -287,354c-35,48 -65,86 -67,84c-6,-6 15,-153 37,-251c10,-49 17,-91 15,-93c-7,-7 -183,350 -240,486c-102,242 -260,741 -336,1061c-12,52 -26,99 -30,103c-4,4 -17,-25 -28,-65z"></path></g></g></g></svg>